<?xml version="1.0" encoding="UTF-8" standalone="no"?>
<!-- Created with Inkscape (http://www.inkscape.org/) -->

<svg
   width="297mm"
   height="210mm"
   viewBox="0 0 297 210"
   version="1.1"
   id="svg1"
   inkscape:export-filename="TshirtTestbitmap.png"
   inkscape:export-xdpi="96"
   inkscape:export-ydpi="96"
   xml:space="preserve"
   inkscape:version="1.4.3 (0d15f75, 2025-12-25)"
   sodipodi:docname="StOttilienLogo.svg"
   xmlns:inkscape="http://www.inkscape.org/namespaces/inkscape"
   xmlns:sodipodi="http://sodipodi.sourceforge.net/DTD/sodipodi-0.dtd"
   xmlns="http://www.w3.org/2000/svg"
   xmlns:svg="http://www.w3.org/2000/svg"><sodipodi:namedview
     id="namedview1"
     pagecolor="#ffffff"
     bordercolor="#000000"
     borderopacity="0.25"
     inkscape:showpageshadow="2"
     inkscape:pageopacity="0.0"
     inkscape:pagecheckerboard="0"
     inkscape:deskcolor="#d1d1d1"
     inkscape:document-units="mm"
     inkscape:zoom="0.67021109"
     inkscape:cx="590.85862"
     inkscape:cy="388.68351"
     inkscape:window-width="1470"
     inkscape:window-height="895"
     inkscape:window-x="0"
     inkscape:window-y="61"
     inkscape:window-maximized="0"
     inkscape:current-layer="g332" /><defs
     id="defs1"><clipPath
       clipPathUnits="userSpaceOnUse"
       id="clipPath3"><rect
         style="opacity:0.617788;fill:#0000ff;fill-rule:evenodd;stroke-width:0.264583"
         id="rect3"
         width="2238.0413"
         height="2936.0356"
         x="832.88934"
         y="1270.5516" /></clipPath></defs><g
     inkscape:label="Layer 1"
     inkscape:groupmode="layer"
     id="layer1"><g
       id="g332"
       transform="matrix(0.06226022,0,0,0.06123726,-37.4723,-69.714336)"
       style="stroke-width:4.28498"><g
         id="g331"
         transform="matrix(14.036285,0,0,14.938123,-17396.106,-5254.8338)"
         style="stroke-width:1.26801"><path
           id="ellipse190"
           style="font-variation-settings:'opsz' 19.97, 'wght' 865;fill:#184159;stroke:#09b8e0;stroke-width:0.591842"
           transform="matrix(0,-1,-1,0,0,0)"
           d="m -476.3147,-1455.3358 a 66.451355,67.980812 0 0 1 -66.45135,67.9808 66.451355,67.980812 0 0 1 -66.45136,-67.9808 66.451355,67.980812 0 0 1 66.45136,-67.9808 66.451355,67.980812 0 0 1 66.45135,67.9808 z" /><path
           d="m 1611.0013,431.19209 q 7.7419,8.51341 5.3617,20.4342 -2.3766,11.84691 -14.7598,23.10777 -7.159,6.51019 -13.6253,10.12812 -6.4628,3.54404 -12.866,5.832 l -12.5629,-13.81494 1.6253,-1.47799 q 7.9481,-0.51139 15.4313,-3.71078 7.5219,-3.23459 12.7847,-8.02045 1.3544,-1.23166 3.349,-3.46968 1.9946,-2.23803 2.8951,-4.04664 1.0692,-2.24492 1.2026,-4.27507 0.1721,-2.06534 -1.693,-4.1163 -1.7243,-1.89617 -4.5812,-1.77259 -2.8535,0.0497 -6.6179,2.12966 -3.9543,2.18203 -8.1901,4.83205 -4.2323,2.57614 -8.3556,4.41691 -9.4217,4.25522 -16.2934,3.15148 -6.8681,-1.17762 -12.3226,-7.17571 -7.3196,-8.04904 -4.7318,-19.66376 2.5913,-11.68861 13.9296,-21.99934 5.6885,-5.17295 12.2428,-9.08293 6.5577,-3.98386 12.1341,-6.01484 l 12.0702,13.27317 -1.5866,1.4428 q -6.0164,0.38091 -12.7749,3.13336 -6.7549,2.67855 -12.0178,7.46442 -1.8575,1.68913 -3.4686,3.64914 -1.6076,1.88612 -2.6769,4.13104 -0.9813,1.95288 -0.974,4.13782 -0.028,2.14624 1.3446,3.65544 2.0763,2.28314 4.9437,1.9379 2.8323,-0.38395 8.5844,-3.77659 3.7714,-2.22774 7.2368,-4.24785 3.504,-2.05529 7.856,-4.03332 8.5879,-3.85047 15.1358,-2.94723 6.5515,0.82934 11.9707,6.78873 z m 44.366,-75.83862 -20.3469,13.32517 34.4162,52.55181 -16.8026,11.004 -34.4162,-52.5518 -20.3469,13.32516 -8.253,-12.60193 57.4964,-37.65434 z m 137.485,-30.29458 q 6.0009,17.62718 -0.5602,31.46395 -6.578,13.78726 -24.4032,19.85558 -17.7758,6.05146 -31.3997,-0.85836 -13.6409,-6.95935 -19.6418,-24.58653 -6.0514,-17.77573 0.5434,-31.51347 6.578,-13.78726 24.3537,-19.83872 17.7262,-6.03461 31.3997,0.85836 13.6566,6.84346 19.7081,24.61919 z m -18.848,27.24692 q 1.6265,-4.31095 1.4126,-9.32142 -0.2307,-5.05998 -2.3378,-11.2493 -2.2587,-6.63495 -5.3782,-10.76677 -3.1195,-4.13182 -6.5729,-6.16084 -3.5366,-2.11119 -7.3092,-2.3187 -3.7231,-0.22437 -7.2881,0.98929 -3.6146,1.23052 -6.3948,3.61357 -2.7306,2.36619 -4.393,6.24731 -1.5318,3.61564 -1.4475,9.05699 0.117,5.37497 2.3084,11.81187 2.2419,6.58543 5.3118,10.73411 3.1026,4.0823 6.5729,6.16084 3.4702,2.07854 7.2597,2.33556 3.7894,0.25703 7.4535,-0.99035 3.6641,-1.24737 6.5096,-3.76316 2.8286,-2.56531 4.293,-6.379 z m 97.269,-64.38539 -24.0337,3.73334 9.6425,62.07406 -19.8472,3.08302 -9.6424,-62.07407 -24.0337,3.73334 -2.3123,-14.88537 67.9145,-10.54969 z m 82.8297,-1.02976 -24.3219,-0.0189 -0.049,62.8185 -20.0852,-0.0156 0.049,-62.8185 -24.3219,-0.0189 0.012,-15.06389 68.729,0.0534 z m 53.6996,70.60756 -45.1624,-6.37532 1.9302,-13.673 12.6371,1.78392 7.026,-49.77181 -12.6371,-1.78392 1.9301,-13.67301 45.1624,6.37532 -1.9302,13.673 -12.6372,-1.78391 -7.026,49.77181 12.6372,1.78391 z m 70.1675,18.5284 -54.0703,-15.23547 21.1226,-74.96338 19.3323,5.44732 -17.037,60.46408 34.7379,9.78816 z m 49.7941,21.62354 -41.847,-18.14145 5.4924,-12.66927 11.7094,5.07628 19.9931,-46.11807 -11.7095,-5.07628 5.4924,-12.66927 41.847,18.14145 -5.4924,12.66927 -11.7095,-5.07628 -19.993,46.11807 11.7094,5.07628 z m 62.7768,36.71829 -48.0635,-29.3815 40.6212,-66.44988 48.0635,29.3815 -7.8569,12.85263 -31.0159,-18.9602 -7.0112,11.46918 28.7846,17.59616 -7.8569,12.85263 -28.7845,-17.59616 -10.0394,16.42281 31.0159,18.9602 z m 67.0908,56.51434 -14.5178,-12.79722 10.55,-61.95955 -35.348,40.10052 -13.8115,-12.17465 51.5001,-58.42434 18.0099,15.87546 -8.1969,52.2502 29.5028,-33.46942 13.8115,12.17465 z"
           id="text190"
           style="font-weight:900;font-size:107.121px;font-family:'.ADT Slab Numeric';-inkscape-font-specification:'.ADT Slab Numeric, Heavy';text-align:center;text-anchor:middle;fill:#09b8e0;stroke-width:3.3471"
           transform="matrix(0.09537403,0,0,0.09516872,1272.8155,457.16713)"
           aria-label="ST OTTILIEN" /><path
           d="m 1410.6814,593.08779 q -0.7008,-0.60659 -1.117,-1.3287 -0.4121,-0.71845 -0.484,-1.49705 -0.072,-0.7786 0.2214,-1.59541 0.2977,-0.81316 0.992,-1.61533 0.6467,-0.74728 1.3967,-1.16157 0.75,-0.4143 1.5528,-0.48009 0.7712,-0.0635 1.5723,0.23104 0.8053,0.29821 1.523,0.91942 0.3969,0.34349 0.6733,0.66399 0.2844,0.31993 0.4924,0.62557 0.2135,0.32505 0.3538,0.6237 0.1481,0.29808 0.2482,0.53234 l -1.3192,1.52412 -0.1858,-0.16078 q -0.031,-0.20364 -0.091,-0.5001 -0.057,-0.29279 -0.1678,-0.62522 -0.1153,-0.33608 -0.3051,-0.66283 -0.1898,-0.32675 -0.498,-0.5935 -0.342,-0.29599 -0.7452,-0.45297 -0.3996,-0.1612 -0.8769,-0.13866 -0.4574,0.025 -0.9571,0.28671 -0.4955,0.26532 -0.9851,0.83106 -0.5116,0.59107 -0.6905,1.13044 -0.1746,0.54303 -0.1186,0.99027 0.057,0.45511 0.2855,0.83049 0.2326,0.37117 0.5408,0.63792 0.2956,0.25579 0.6594,0.41561 0.3681,0.16348 0.7445,0.22343 0.3128,0.0566 0.6107,0.0708 0.2979,0.0141 0.4996,0.0115 l 0.1689,0.14617 -1.3009,1.50301 q -0.3277,-0.0991 -0.6235,-0.19256 -0.2957,-0.0935 -0.5906,-0.23056 -0.3849,-0.17809 -0.6953,-0.36552 -0.3104,-0.18742 -0.7833,-0.59669 z m 11.5055,1.04427 q 0.169,-0.26312 0.1816,-0.52045 0.013,-0.25733 -0.1812,-0.53434 -0.135,-0.19282 -0.3702,-0.36379 -0.2323,-0.17566 -0.5565,-0.38381 l -0.6531,-0.41932 -1.2097,1.88416 0.5544,0.35597 q 0.4323,0.27753 0.7508,0.42228 0.3184,0.14474 0.6123,0.12109 0.2815,-0.025 0.4777,-0.14454 0.2039,-0.12123 0.3939,-0.41725 z m -0.3017,6.66069 -2.2037,-1.41482 -0.2605,-3.79023 -0.8317,-0.53395 -1.6471,2.56546 -1.7949,-1.15237 4.4919,-6.99628 3.0259,1.94273 q 0.6202,0.3982 1.0213,0.75527 0.4011,0.35706 0.6403,0.84238 0.2439,0.48833 0.2328,1.01204 0,0.52202 -0.3654,1.08586 -0.4978,0.77528 -1.1733,1.03166 -0.6708,0.25939 -1.5462,0.15523 z m 5.898,2.76905 -4.3967,-2.09192 0.6333,-1.3311 1.2303,0.58535 2.3054,-4.84543 -1.2303,-0.58535 0.6334,-1.33111 4.3967,2.09192 -0.6334,1.33111 -1.2302,-0.58535 -2.3055,4.84542 1.2303,0.58536 z m 6.1141,2.43849 q -0.8789,-0.29437 -1.5386,-0.80384 -0.6543,-0.50769 -1.0171,-1.20037 -0.3627,-0.69268 -0.4021,-1.55971 -0.034,-0.86525 0.3029,-1.87123 0.3138,-0.93715 0.8498,-1.60559 0.536,-0.66844 1.2534,-1.03469 0.6891,-0.35216 1.542,-0.38449 0.8582,-0.0306 1.7583,0.2709 0.4977,0.16668 0.8752,0.35792 0.3847,0.18771 0.6934,0.39121 0.3211,0.21941 0.5644,0.44224 0.2504,0.2193 0.432,0.3979 l -0.6401,1.91136 -0.233,-0.078 q -0.1057,-0.17672 -0.2748,-0.4277 -0.1639,-0.2492 -0.393,-0.51438 -0.2345,-0.26696 -0.5343,-0.49693 -0.2999,-0.22997 -0.6864,-0.35942 -0.4289,-0.14364 -0.8615,-0.13543 -0.4308,0.003 -0.8637,0.20536 -0.4135,0.19717 -0.776,0.62926 -0.3573,0.43385 -0.595,1.14333 -0.2482,0.74125 -0.2084,1.3081 0.045,0.56863 0.267,0.96094 0.2254,0.39937 0.58,0.65944 0.3563,0.25477 0.7428,0.38422 0.3706,0.12413 0.7679,0.13352 0.4026,0.0112 0.7735,-0.0766 0.3109,-0.0667 0.5917,-0.1669 0.2809,-0.10025 0.4665,-0.17944 l 0.2117,0.0709 -0.6312,1.88489 q -0.3409,0.0331 -0.6499,0.0591 -0.3091,0.026 -0.6339,0.0115 -0.4238,-0.0183 -0.7821,-0.0735 -0.3584,-0.0553 -0.9514,-0.25385 z m 13.0444,2.84992 -2.5854,-0.48194 -1.8328,-3.72686 -0.6056,0.50623 -0.4983,2.67321 -2.1078,-0.39292 1.5236,-8.17332 2.1078,0.39291 -0.6896,3.69968 3.6098,-3.15532 2.4427,0.45533 -3.8997,3.1865 z m 8.1381,0.43887 -6.0063,-0.29585 0.409,-8.30405 6.0064,0.29585 -0.079,1.60616 -3.8759,-0.19092 -0.071,1.43327 3.5971,0.17718 -0.079,1.60616 -3.5971,-0.17718 -0.1011,2.05231 3.8759,0.19091 z m 8.8325,-7.25779 -2.5884,0.20331 0.5251,6.68542 -2.1376,0.16789 -0.5251,-6.68542 -2.5884,0.2033 -0.126,-1.60316 7.3145,-0.5745 z m 11.3981,4.42544 q -0.8905,0.25738 -1.7228,0.21315 -0.8269,-0.0458 -1.5191,-0.4095 -0.6922,-0.36372 -1.2174,-1.05469 -0.5198,-0.69252 -0.8144,-1.7117 -0.2744,-0.94945 -0.2134,-1.80405 0.061,-0.85461 0.4431,-1.56371 0.3668,-0.68144 1.0502,-1.19282 0.6887,-0.51293 1.6006,-0.77651 0.5042,-0.14574 0.9236,-0.20302 0.4231,-0.0642 0.7928,-0.0722 0.3889,-0.002 0.7157,0.043 0.3307,0.0381 0.5816,0.0818 l 0.5598,1.93644 -0.2361,0.0682 q -0.1874,-0.0853 -0.4692,-0.19567 -0.2764,-0.11189 -0.6157,-0.19982 -0.3447,-0.0864 -0.7221,-0.10516 -0.3774,-0.0188 -0.769,0.0944 -0.4345,0.12558 -0.7857,0.37823 -0.3528,0.24729 -0.5939,0.6599 -0.2281,0.39723 -0.2809,0.95883 -0.047,0.56004 0.1604,1.27883 0.2171,0.75097 0.572,1.19473 0.3603,0.44221 0.7659,0.63885 0.4125,0.20044 0.852,0.2129 0.438,0.007 0.8296,-0.1061 0.3754,-0.10853 0.7076,-0.32661 0.3376,-0.21963 0.5929,-0.50266 0.2179,-0.23153 0.392,-0.47367 0.1741,-0.24213 0.2818,-0.41273 l 0.2145,-0.062 0.552,1.90962 q -0.2616,0.22093 -0.5011,0.41801 -0.2395,0.19709 -0.515,0.36974 -0.3591,0.22583 -0.6853,0.38406 -0.3262,0.15824 -0.927,0.33189 z m 10.7538,-4.32093 -5.5007,2.38854 -3.3115,-7.62617 1.9668,-0.85401 2.6709,6.15114 3.534,-1.53454 z m 6.7668,-7.43188 q 0.8005,1.31687 0.4253,2.50552 -0.3752,1.18865 -1.9354,2.1371 -1.5602,0.94844 -2.7881,0.73433 -1.2232,-0.217 -2.0208,-1.5291 l -2.7583,-4.53749 1.8417,-1.11957 2.6945,4.43252 q 0.4495,0.73955 0.9801,0.91364 0.5306,0.17409 1.2272,-0.24938 0.687,-0.41766 0.7902,-0.95739 0.108,-0.54263 -0.359,-1.31081 l -2.6945,-4.43252 1.8417,-1.11956 z m 7.8931,-5.75244 q 0.3859,0.4634 0.5009,0.98533 0.1192,0.51835 -0.01,1.03019 -0.1418,0.59762 -0.4966,1.09651 -0.3504,0.49532 -1.0455,1.07417 l -2.789,2.32253 -5.3204,-6.38891 2.4801,-2.06526 q 0.7723,-0.64317 1.1713,-0.88825 0.4033,-0.24865 0.9016,-0.36572 0.5184,-0.11922 0.9552,0.0475 0.4374,0.15886 0.7697,0.5579 0.3859,0.4634 0.4379,1.0232 0.048,0.55551 -0.2334,1.12448 l 0.029,0.0343 q 0.73,-0.39724 1.4199,-0.3105 0.6942,0.0832 1.2265,0.72249 z m -4.2977,-0.86796 q -0.1323,-0.15876 -0.346,-0.24963 -0.2094,-0.0944 -0.4754,-0.004 -0.2374,0.0814 -0.5113,0.30223 -0.2731,0.21295 -0.758,0.61672 l -0.1545,0.12863 1.1256,1.35158 0.2574,-0.21439 q 0.3905,-0.32515 0.6544,-0.5667 0.2638,-0.24155 0.3619,-0.4467 0.1409,-0.28449 0.081,-0.49613 -0.063,-0.21593 -0.235,-0.42188 z m 2.5686,2.26431 q -0.2537,-0.30464 -0.5096,-0.36764 -0.2552,-0.0709 -0.6063,0.0834 -0.2395,0.10501 -0.5821,0.38299 -0.3425,0.27799 -0.7115,0.58528 l -0.3604,0.30014 1.3256,1.59186 0.1201,-0.10004 q 0.6951,-0.57885 0.9919,-0.83326 0.2968,-0.25441 0.4606,-0.57249 0.1681,-0.32166 0.116,-0.57618 -0.051,-0.2624 -0.2443,-0.4941 z"
           id="text191"
           style="font-weight:900;font-size:11.4354px;line-height:0.1;font-family:'.ADT Slab Numeric';-inkscape-font-specification:'.ADT Slab Numeric, Heavy';text-align:center;letter-spacing:1.0686px;text-anchor:middle;fill:#09b8e0;stroke-width:0.315726"
           transform="matrix(0.94428102,0.01652743,-0.01680057,0.93294156,91.346413,10.923748)"
           aria-label="CRICKET CLUB" /><g
           id="g208"
           transform="matrix(0.10154629,0,0,0.1030158,1331.7797,457.63216)"
           style="stroke-width:2.89329"><path
             d="m 665.93393,842.78899 h 41.47173 V 832.60787 H 682.9336 l 6.63175,-6.72514 c 6.53833,-6.81855 17.6535,-18.21394 17.6535,-29.79614 0,-11.769 -7.28557,-18.40074 -22.04353,-18.40074 -7.47238,0 -14.01072,2.0549 -18.49415,4.57683 l 1.68129,9.43389 c 3.54938,-1.8681 8.87345,-3.8296 12.88986,-3.8296 7.93941,0 12.23603,2.52193 12.23603,10.08772 0,7.56579 -7.6592,15.97222 -16.43925,25.3127 l -11.11517,11.86241 z m 75.09747,1.12086 c 13.73051,0 25.77973,-8.40643 25.77973,-31.47742 v -3.26916 c 0,-22.79077 -11.86241,-31.47742 -25.59292,-31.47742 -13.45029,0 -25.87313,8.49984 -25.87313,31.75763 v 3.36257 c 0,22.13694 11.30198,31.1038 25.68632,31.1038 z m 0,-9.90091 c -8.12621,0 -11.769,-7.00536 -11.769,-21.4831 v -4.01641 c 0,-14.57115 3.82959,-20.92267 11.86241,-20.92267 7.93941,0 11.95581,6.72514 11.95581,21.57651 v 4.0164 c 0,14.94477 -3.923,20.82927 -12.04922,20.82927 z"
             id="text192"
             style="font-weight:800;font-size:93.4048px;font-family:'.Apple SD Gothic NeoI';-inkscape-font-specification:'.Apple SD Gothic NeoI, Ultra-Bold';fill:#09b8e0;stroke-width:0"
             transform="scale(0.95706455,1.0448616)"
             aria-label="20" /><g
             id="g200"
             transform="translate(-690.93712,-1.343537)"
             style="fill:#09b8e0;fill-opacity:1;stroke-width:2.89329"><g
               id="g193"
               style="fill:#09b8e0;fill-opacity:1;stroke-width:2.89329"><path
                 style="fill:#09b8e0;fill-opacity:1;stroke:none;stroke-width:2.89782;stroke-opacity:1"
                 d="m 1395.9592,779.4129 c 0,0 -4.0926,-14.09425 6.0009,-29.34926 5.1061,-7.71724 14.0386,-14.55622 28.5693,-22.41062 0,0 -0.431,39.32882 -34.5702,51.75988 z"
                 id="path192"
                 sodipodi:nodetypes="cscc" /><path
                 style="fill:#09b8e0;fill-opacity:1;stroke:none;stroke-width:2.89782;stroke-opacity:1"
                 d="m 1390.0244,780.46888 c 0,0 7.2,-12.78897 0.8527,-29.94432 -3.211,-8.6786 -10.3478,-17.37498 -22.7035,-28.33708 0,0 -8.5524,38.3901 21.8508,58.2814 z"
                 id="path193"
                 sodipodi:nodetypes="cscc" /></g><g
               id="g195"
               transform="translate(1296.6618,-15.553226)"
               style="fill:#09b8e0;fill-opacity:1;stroke-width:2.89329"><path
                 style="fill:#09b8e0;fill-opacity:1;stroke:none;stroke-width:2.89782;stroke-opacity:1"
                 d="m 105.52233,750.97344 c 0,0 -2.96093,-14.37466 8.3117,-28.78029 5.70263,-7.28756 15.14983,-13.39589 30.25811,-20.07205 0,0 -3.55154,39.1705 -38.56981,48.85234 z"
                 id="path194"
                 sodipodi:nodetypes="cscc" /><path
                 style="fill:#09b8e0;fill-opacity:1;stroke:none;stroke-width:2.89782;stroke-opacity:1"
                 d="m 95.941187,752.37106 c 0,0 10.169753,-10.58178 8.314783,-28.77941 -0.93839,-9.20586 -5.673412,-19.41081 -14.894775,-33.11473 0,0 -17.882049,35.03105 6.579992,61.89414 z"
                 id="path195"
                 sodipodi:nodetypes="cscc" /></g><g
               id="g197"
               transform="matrix(0.9200785,0.10998881,-0.10881051,0.93004203,1410.7412,-58.674016)"
               style="fill:#09b8e0;fill-opacity:1;stroke-width:3.10607"><path
                 style="opacity:1;fill:#09b8e0;fill-opacity:1;stroke:none;stroke-width:3.11092;stroke-opacity:1"
                 d="m 99.478328,795.28199 c 0,0 -4.09266,-14.09425 6.000862,-29.34926 5.10614,-7.71724 14.03865,-14.55622 28.56929,-22.41062 0,0 -0.43094,39.32882 -34.570152,51.75988 z"
                 id="path196"
                 sodipodi:nodetypes="cscc" /><path
                 style="opacity:1;fill:#09b8e0;fill-opacity:1;stroke:none;stroke-width:3.11092;stroke-opacity:1"
                 d="m 90.486378,798.01464 c 0,0 9.684932,-11.68741 6.995413,-31.19056 -1.360586,-9.8663 -6.563758,-20.68956 -16.413916,-35.13561 0,0 -16.276399,38.20503 9.418503,66.32617 z"
                 id="path197"
                 sodipodi:nodetypes="cscc" /></g><g
               id="g199"
               transform="translate(1296.6618,-15.553226)"
               style="fill:#09b8e0;fill-opacity:1;stroke-width:2.89329"><path
                 style="fill:#09b8e0;fill-opacity:1;stroke:none;stroke-width:2.89782;stroke-opacity:1"
                 d="m 133.43413,666.44285 c 0,0 -1.29518,-13.98586 10.95125,-26.495 6.19526,-6.32815 15.8274,-11.13842 30.9042,-15.88973 0,0 -7.52309,36.88143 -41.85545,42.38473 z"
                 id="path198"
                 sodipodi:nodetypes="cscc" /><path
                 style="opacity:1;fill:#09b8e0;fill-opacity:1;stroke:none;stroke-width:2.89782;stroke-opacity:1"
                 d="m 124.02897,662.70831 c 0,0 -15.56082,-26.54495 21.51057,-64.07401 l -6.86508,39.35974 c 0,0 -4.11905,15.10317 -14.64549,24.71427 z"
                 id="path199"
                 sodipodi:nodetypes="cccc" /></g></g><g
             id="g207"
             transform="translate(596.28082,-17.197534)"
             style="fill:#09b8e0;fill-opacity:1;stroke-width:2.89329"><g
               id="g201"
               transform="rotate(-42.741155,542.53133,836.93004)"
               style="fill:#09b8e0;fill-opacity:1;stroke-width:2.89329"><path
                 style="fill:#09b8e0;fill-opacity:1;stroke:none;stroke-width:2.89782;stroke-opacity:1"
                 d="m 130.18705,667.31422 c 0,0 0.82701,-14.02134 14.8185,-24.54235 7.07806,-5.32238 17.32504,-8.62636 32.94563,-11.05163 0,0 -12.99452,35.32675 -47.76413,35.59398 z"
                 id="path200"
                 sodipodi:nodetypes="cscc" /><path
                 style="opacity:1;fill:#09b8e0;fill-opacity:1;stroke:none;stroke-width:2.89782;stroke-opacity:1"
                 d="m 144.07009,599.01885 c 0,0 -34.42133,33.36738 -19.92387,63.29775 0,0 25.13543,-23.08372 19.92387,-63.29775 z"
                 id="path201"
                 sodipodi:nodetypes="ccc" /></g><g
               id="g203"
               style="fill:#09b8e0;fill-opacity:1;stroke-width:2.89329"><path
                 style="fill:#09b8e0;fill-opacity:1;stroke:none;stroke-width:2.89782;stroke-opacity:1"
                 d="m 136.95934,1038.1752 c 0,0 -9.40742,-10.4298 -7.08208,-27.7805 1.17637,-8.7774 6.01459,-18.39557 15.25018,-31.22478 0,0 16.04432,34.05018 -8.1681,59.00528 z"
                 id="path202"
                 sodipodi:nodetypes="cscc" /><path
                 style="fill:#09b8e0;fill-opacity:1;stroke:none;stroke-width:2.89782;stroke-opacity:1"
                 d="m 91.658651,988.39553 c 0,0 5.602759,47.61107 38.185559,54.27177 0,0 -3.07275,-33.9883 -38.185559,-54.27177 z"
                 id="path203"
                 sodipodi:nodetypes="ccc" /></g><g
               id="g206"
               style="fill:#09b8e0;fill-opacity:1;stroke-width:2.89329"><path
                 style="fill:#09b8e0;fill-opacity:1;stroke:none;stroke-width:2.89782;stroke-opacity:1"
                 d="m 160.31037,1090.3652 c 0,0 -8.45993,-9.3793 -6.3688,-24.9825 1.0579,-7.8934 5.40882,-16.5429 13.71424,-28.08 0,0 14.42838,30.6208 -7.34544,53.0625 z"
                 id="path204"
                 sodipodi:nodetypes="cscc" /><path
                 style="fill:#09b8e0;fill-opacity:1;stroke:none;stroke-width:2.89782;stroke-opacity:1"
                 d="m 102.79603,1038.8149 c 0,0 12.73339,49.1191 47.8599,51.4102 0,0 -8.11806,-35.1983 -47.8599,-51.4102 z"
                 id="path205"
                 sodipodi:nodetypes="ccc" /><path
                 style="opacity:1;fill:#09b8e0;fill-opacity:1;stroke:none;stroke-width:2.89782;stroke-opacity:1"
                 d="m 147.08065,1076.7804 c 0,0 -2.01381,-8.1399 -5.34868,-12.5864 0,-0.1853 -2.03798,-2.9643 -1.11163,-15.9333 0.18527,0 0.55582,-11.3015 15.00692,-28.7169 0.37054,-0.1853 0.72166,-0.5789 0.72166,-0.5789 l 0.4344,-0.036 h 0.4344 l 0.21721,0.3258 0.2172,0.6516 0.48556,2.7308 0.39497,1.5799 0.29623,1.0861 0.3456,1.0862 c 0,0 2.76962,12.7976 -4.43091,25.7042 -0.13586,0.1358 -4.13029,11.7552 -5.4212,24.4226 l -0.94008,1.0721 z"
                 id="path206"
                 sodipodi:nodetypes="ccccccccccccccccc" /></g><path
               style="opacity:1;fill:#09b8e0;fill-opacity:1;stroke:none;stroke-width:2.89782;stroke-opacity:1"
               d="m 160.40313,1101.1167 h 4.15632 l 2.62407,2.2255 1.38025,1.8978 0.69013,1.6391 1.55279,2.8468 1.38025,2.7605 1.12146,1.8116 7.24635,10.7832 0.51759,1.1215 -0.0863,0.9489 -0.60387,0.6901 -0.60386,0.2588 h -0.60386 l -0.50819,-0.3375 -0.47923,-0.4793 -0.34853,-0.4792 -8.02217,-11.3244 -1.73282,-2.3712 -1.36801,-1.7328 -0.82081,-1.1856 -1.09442,-1.7328 -0.456,-0.7296 -0.91201,-1.8241 -0.72961,-1.2768 -0.63841,-0.912 -1.09441,-1.1856 z"
               id="path207" /></g></g><g
           id="g224"
           transform="matrix(0.10377363,0,0,0.10355023,1325.4623,457.62516)"
           style="stroke-width:2.85469"><path
             d="m 1728.1323,877.95897 h 42.5293 v -10.44076 h -25.0961 l 6.8009,-6.89665 c 6.705,-6.99243 18.1037,-18.67842 18.1037,-30.55599 0,-12.06913 -7.4714,-18.87 -22.6057,-18.87 -7.663,0 -14.368,2.10731 -18.9658,4.69356 l 1.7242,9.67446 c 3.6399,-1.91573 9.0997,-3.92725 13.2185,-3.92725 8.1419,0 12.5481,2.58624 12.5481,10.34497 0,7.75873 -7.8545,16.37954 -16.8585,25.95822 l -11.3986,12.16492 z m 77.0126,1.34102 h 12.8354 v -13.02701 h 9.9619 v -9.77025 h -9.9619 v -44.54086 h -8.9081 l -33.5254,47.03132 v 7.27979 h 29.5981 z m -15.709,-22.79726 15.8048,-22.12675 v 22.12675 z"
             id="text208"
             style="font-weight:800;font-size:95.7868px;font-family:'.Apple SD Gothic NeoI';-inkscape-font-specification:'.Apple SD Gothic NeoI, Ultra-Bold';fill:#09b8e0;stroke-width:0"
             transform="scale(1.0091935,0.99089025)"
             aria-label="24" /><g
             id="g216"
             transform="matrix(-1,0,0,1,1879.2544,-16.09801)"
             style="fill:#09b8e0;fill-opacity:1;stroke-width:2.85469"><g
               id="g210"
               transform="translate(-1150.1214,267.04146)"
               style="fill:#09b8e0;fill-opacity:1;stroke-width:2.85469"><g
                 id="g209"
                 transform="translate(1149.9405,-267.35732)"
                 style="fill:#09b8e0;fill-opacity:1;stroke-width:2.85469"><path
                   style="opacity:1;fill:#09b8e0;fill-opacity:1;stroke:none;stroke-width:2.85916;stroke-opacity:1"
                   d="m 99.478328,795.28199 c 0,0 -4.09266,-14.09425 6.000862,-29.34926 5.10614,-7.71724 14.03865,-14.55622 28.56929,-22.41062 0,0 -0.43094,39.32882 -34.570152,51.75988 z"
                   id="path208"
                   sodipodi:nodetypes="cscc" /><path
                   style="opacity:1;fill:#09b8e0;fill-opacity:1;stroke:none;stroke-width:2.85916;stroke-opacity:1"
                   d="m 93.543508,796.33797 c 0,0 7.200002,-12.78897 0.852687,-29.94432 -3.211,-8.6786 -10.347829,-17.37498 -22.703534,-28.33708 0,0 -8.552332,38.3901 21.850847,58.2814 z"
                   id="path209"
                   sodipodi:nodetypes="cscc" /></g></g><g
               id="g211"
               style="fill:#09b8e0;fill-opacity:1;stroke-width:2.85469"><path
                 style="fill:#09b8e0;fill-opacity:1;stroke:none;stroke-width:2.85916;stroke-opacity:1"
                 d="m 105.52233,750.97344 c 0,0 -2.96093,-14.37466 8.3117,-28.78029 5.70263,-7.28756 15.14983,-13.39589 30.25811,-20.07205 0,0 -3.55154,39.1705 -38.56981,48.85234 z"
                 id="path210"
                 sodipodi:nodetypes="cscc" /><path
                 style="fill:#09b8e0;fill-opacity:1;stroke:none;stroke-width:2.85916;stroke-opacity:1"
                 d="m 95.941187,752.37106 c 0,0 10.169753,-10.58178 8.314783,-28.77941 -0.93839,-9.20586 -5.673412,-19.41081 -14.894775,-33.11473 0,0 -17.882049,35.03105 6.579992,61.89414 z"
                 id="path211"
                 sodipodi:nodetypes="cscc" /></g><g
               id="g213"
               transform="matrix(0.9200785,0.10998881,-0.10881051,0.93004203,114.07941,-43.12079)"
               style="fill:#09b8e0;fill-opacity:1;stroke-width:3.06464"><path
                 style="opacity:1;fill:#09b8e0;fill-opacity:1;stroke:none;stroke-width:3.06943;stroke-opacity:1"
                 d="m 99.478328,795.28199 c 0,0 -4.09266,-14.09425 6.000862,-29.34926 5.10614,-7.71724 14.03865,-14.55622 28.56929,-22.41062 0,0 -0.43094,39.32882 -34.570152,51.75988 z"
                 id="path212"
                 sodipodi:nodetypes="cscc" /><path
                 style="opacity:1;fill:#09b8e0;fill-opacity:1;stroke:none;stroke-width:3.06943;stroke-opacity:1"
                 d="m 90.486378,798.01464 c 0,0 9.684932,-11.68741 6.995413,-31.19056 -1.360586,-9.8663 -6.563758,-20.68956 -16.413916,-35.13561 0,0 -16.276399,38.20503 9.418503,66.32617 z"
                 id="path213"
                 sodipodi:nodetypes="cscc" /></g><g
               id="g215"
               style="fill:#09b8e0;fill-opacity:1;stroke-width:2.85469"><path
                 style="fill:#09b8e0;fill-opacity:1;stroke:none;stroke-width:2.85916;stroke-opacity:1"
                 d="m 133.43413,666.44285 c 0,0 -1.29518,-13.98586 10.95125,-26.495 6.19526,-6.32815 15.8274,-11.13842 30.9042,-15.88973 0,0 -7.52309,36.88143 -41.85545,42.38473 z"
                 id="path214"
                 sodipodi:nodetypes="cscc" /><path
                 style="opacity:1;fill:#09b8e0;fill-opacity:1;stroke:none;stroke-width:2.85916;stroke-opacity:1"
                 d="m 124.02897,662.70831 c 0,0 -15.56082,-26.54495 21.51057,-64.07401 l -6.86508,39.35974 c 0,0 -4.11905,15.10317 -14.64549,24.71427 z"
                 id="path215"
                 sodipodi:nodetypes="cccc" /></g></g><g
             id="g223"
             transform="matrix(-1,0,0,1,1889.5774,-17.389925)"
             style="fill:#09b8e0;fill-opacity:1;stroke-width:2.85469"><g
               id="g217"
               transform="rotate(-42.741155,542.53133,836.93004)"
               style="fill:#09b8e0;fill-opacity:1;stroke-width:2.85469"><path
                 style="fill:#09b8e0;fill-opacity:1;stroke:none;stroke-width:2.85916;stroke-opacity:1"
                 d="m 130.18705,667.31422 c 0,0 0.82701,-14.02134 14.8185,-24.54235 7.07806,-5.32238 17.32504,-8.62636 32.94563,-11.05163 0,0 -12.99452,35.32675 -47.76413,35.59398 z"
                 id="path216"
                 sodipodi:nodetypes="cscc" /><path
                 style="opacity:1;fill:#09b8e0;fill-opacity:1;stroke:none;stroke-width:2.85916;stroke-opacity:1"
                 d="m 144.07009,599.01885 c 0,0 -34.42133,33.36738 -19.92387,63.29775 0,0 25.13543,-23.08372 19.92387,-63.29775 z"
                 id="path217"
                 sodipodi:nodetypes="ccc" /></g><g
               id="g219"
               style="fill:#09b8e0;fill-opacity:1;stroke-width:2.85469"><path
                 style="fill:#09b8e0;fill-opacity:1;stroke:none;stroke-width:2.85916;stroke-opacity:1"
                 d="m 136.95934,1038.1752 c 0,0 -9.40742,-10.4298 -7.08208,-27.7805 1.17637,-8.7774 6.01459,-18.39557 15.25018,-31.22478 0,0 16.04432,34.05018 -8.1681,59.00528 z"
                 id="path218"
                 sodipodi:nodetypes="cscc" /><path
                 style="fill:#09b8e0;fill-opacity:1;stroke:none;stroke-width:2.85916;stroke-opacity:1"
                 d="m 91.658651,988.39553 c 0,0 5.602759,47.61107 38.185559,54.27177 0,0 -3.07275,-33.9883 -38.185559,-54.27177 z"
                 id="path219"
                 sodipodi:nodetypes="ccc" /></g><g
               id="g222"
               style="fill:#09b8e0;fill-opacity:1;stroke-width:2.85469"><path
                 style="fill:#09b8e0;fill-opacity:1;stroke:none;stroke-width:2.85916;stroke-opacity:1"
                 d="m 160.31037,1090.3652 c 0,0 -8.45993,-9.3793 -6.3688,-24.9825 1.0579,-7.8934 5.40882,-16.5429 13.71424,-28.08 0,0 14.42838,30.6208 -7.34544,53.0625 z"
                 id="path220"
                 sodipodi:nodetypes="cscc" /><path
                 style="fill:#09b8e0;fill-opacity:1;stroke:none;stroke-width:2.85916;stroke-opacity:1"
                 d="m 102.79603,1038.8149 c 0,0 12.73339,49.1191 47.8599,51.4102 0,0 -8.11806,-35.1983 -47.8599,-51.4102 z"
                 id="path221"
                 sodipodi:nodetypes="ccc" /><path
                 style="opacity:1;fill:#09b8e0;fill-opacity:1;stroke:none;stroke-width:2.85916;stroke-opacity:1"
                 d="m 147.08065,1076.7804 c 0,0 -2.01381,-8.1399 -5.34868,-12.5864 0,-0.1853 -2.03798,-2.9643 -1.11163,-15.9333 0.18527,0 0.55582,-11.3015 15.00692,-28.7169 0.37054,-0.1853 0.72166,-0.5789 0.72166,-0.5789 l 0.4344,-0.036 h 0.4344 l 0.21721,0.3258 0.2172,0.6516 0.48556,2.7308 0.39497,1.5799 0.29623,1.0861 0.3456,1.0862 c 0,0 2.76962,12.7976 -4.43091,25.7042 -0.13586,0.1358 -4.13029,11.7552 -5.4212,24.4226 l -0.94008,1.0721 z"
                 id="path222"
                 sodipodi:nodetypes="ccccccccccccccccc" /></g><path
               style="opacity:1;fill:#09b8e0;fill-opacity:1;stroke:none;stroke-width:2.85916;stroke-opacity:1"
               d="m 160.40313,1101.1167 h 4.15632 l 2.62407,2.2255 1.38025,1.8978 0.69013,1.6391 1.55279,2.8468 1.38025,2.7605 1.12146,1.8116 7.24635,10.7832 0.51759,1.1215 -0.0863,0.9489 -0.60387,0.6901 -0.60386,0.2588 h -0.60386 l -0.50819,-0.3375 -0.47923,-0.4793 -0.34853,-0.4792 -8.02217,-11.3244 -1.73282,-2.3712 -1.36801,-1.7328 -0.82081,-1.1856 -1.09442,-1.7328 -0.456,-0.7296 -0.91201,-1.8241 -0.72961,-1.2768 -0.63841,-0.912 -1.09441,-1.1856 z"
               id="path223" /></g></g><g
           id="g248"
           style="fill:#09b8e0;fill-opacity:1;stroke-width:2.98247"
           transform="matrix(0.09932728,0,0,0.09911346,1393.1582,459.6629)"><path
             style="opacity:1;fill:#09b8e0;fill-opacity:1;stroke:none;stroke-width:2.98713;stroke-opacity:1"
             d="m 542.17617,681.51878 c -28.16499,4.44711 -41.8769,15.19428 -65.96538,31.87092 -24.08849,16.67664 -41.87691,36.31802 -54.47704,51.51229 -12.60013,15.19428 -28.16499,44.84164 -31.87091,52.99467 -3.70592,8.15302 -13.34132,38.91216 -14.45309,59.66532 -1.11178,20.75315 -0.74119,20.75315 0,33.72387 0.74118,12.97073 3.33533,21.49434 7.41184,33.72388 4.07651,12.22954 11.24105,23.13053 11.24105,23.13053 l 0.8956,0.59706 0.89559,0.59707 h 0.29854 l 0.59706,-0.4478 v -0.59707 l -0.29853,-1.34339 c 0,0 -4.92579,-8.06037 -4.47799,-22.38992 0.4478,-14.32956 1.30007,-21.91129 2.84665,-29.86513 1.54658,-7.95383 6.84913,-34.46662 11.70981,-49.26959 4.86068,-14.80297 10.60511,-27.61748 10.60511,-27.61748 0,0 -3.97691,23.19868 -5.08161,49.93241 -0.22094,0.22094 22.7568,-56.33967 41.97857,-75.11956 19.22177,-18.77989 57.86469,-72.44618 57.86469,-72.44618 l 0.51011,-1.02022 v -0.76516 l -0.38259,-0.51012 h -0.89269 l -1.02022,0.8927 c 0,0 -2.93314,2.67808 -22.5724,13.64546 -19.63926,10.96738 -58.91779,47.56783 -58.91779,47.56783 l -1.14775,0.51011 14.69206,-20.27198 14.24945,-17.75913 c 0,0 11.55479,-13.2724 21.39198,-22.64115 9.83719,-9.36875 20.61125,-19.83052 25.92021,-23.73417 5.30896,-3.90365 9.99333,-7.80729 14.99,-10.30563 4.99667,-2.49833 11.08636,-5.4651 14.67771,-6.71427"
             id="path224"
             sodipodi:nodetypes="csssssscccccccsssccsccccccsccccsssc" /><path
             style="opacity:1;fill:#09b8e0;fill-opacity:1;stroke:none;stroke-width:2.98713;stroke-opacity:1"
             d="m 540.70147,680.93442 c 0,0 30.34549,-2.75868 57.01274,5.51736 26.66725,8.27604 18.85099,25.28791 18.85099,34.02373 v 20.69011 l 18.3912,-0.45978 1.37934,131.95691 c 0,0 -25.28791,-1.83912 -40.46065,8.27604 0,0 -12.87385,-8.27604 -8.27604,-33.10417 4.5978,-24.82813 5.51736,-25.74769 8.27604,-36.78241 2.75868,-11.03473 5.05758,-18.85099 4.5978,-30.3455 -0.45978,-11.4945 0,-18.85098 -6.8967,-28.96615 -6.8967,-10.11516 -9.05222,-8.28159 -9.05222,-8.28159 0,0 5.94767,13.21705 3.96511,35.68604 -0.33042,-0.33043 -8.92151,-13.87791 -24.12111,-16.85174 -15.19961,-2.97384 -28.08623,-2.64341 -28.08623,-2.64341 l -8.92151,1.65213 -2.64341,1.98256 -0.99128,2.31298 -0.33042,2.97384 0.99128,2.31298 1.98255,1.3217 2.64341,1.32171 2.97384,1.65213 2.64341,2.64341 1.3217,1.65213 1.98256,3.63469 1.32171,2.97384 0.66085,1.98255 1.65213,2.97384 1.65213,2.31298 2.31298,1.65213 3.63469,1.98256 3.63469,0.99128 4.95639,0.99128 4.9564,0.66085 3.30426,0.66085 c 0,0 4.15957,0.36145 7.33228,3.30753 3.1727,2.94608 4.75905,4.98567 5.89215,10.31128 1.13311,5.3256 1.90428,21.41143 1.27306,33.40472 -0.63123,11.9933 -1.26246,19.77842 -1.26246,19.77842 l -0.2104,4.8394 v 3.36654 l 0.63122,2.73531 0.84164,2.10409 1.68327,3.36654 3.15613,4.8394 c 0,0 7.99553,9.6788 11.57247,12.62452 l 2.3145,1.47286 1.0069,-0.0755 1.19466,-0.79644 1.72562,-1.59288 1.46014,-1.3274 1.06192,-0.6637 h 1.19467 l 1.46014,0.26548 1.85836,1.3274 4.29352,3.37508 2.13275,2.13276 2.13276,2.93254 6.66486,11.46355 2.39934,4.53211 0.53319,2.66594 0.53319,2.66594 v 2.93254 l -0.26659,3.99891 c 0,0 -3.73232,11.46356 -17.59523,19.19479 -13.8629,7.73124 -24.26008,7.73124 -28.25899,7.73124 -3.99892,0 -11.46356,-3.19913 -15.72907,-5.59848 -4.26551,-2.39935 -9.95904,-9.9783 -12.34924,-17.06353 -0.0854,-0.25609 17.76794,0.10215 23.23984,-1.20068 5.47189,-1.30284 10.16209,-2.60567 10.16209,-2.60567 l 0.7817,-1.04227 -0.52113,-0.7817 c 0,0 -13.68933,3.14597 -25.93596,-2.32593 -1.26656,-0.56591 -2.80509,-1.19352 -3.79818,-1.64192 -2.34926,-1.06073 -3.57466,-1.7614 -4.8036,-2.89559 -3.27474,-3.02227 -3.24442,-6.02501 -3.24442,-6.02501 0,0 19.28193,3.76862 30.4863,2.98692 0,-0.26056 5.21133,-1.04226 5.21133,-1.04226 l 1.30283,-0.7817 -0.26057,-1.30283 h -2.60566 c 0,0 -26.55339,-6.0602 -32.26883,-10.12118 -0.1504,-0.1504 -1.65447,-1.20325 -1.65447,-1.20325 l -1.20325,-0.90244 -0.60162,-1.50406 v -1.35366 l 0.90243,-0.45122 1.35366,-0.30081 1.65447,0.15041 c 0,0 12.93495,4.96341 31.13412,7.2195 0.15041,0 1.35366,-0.90243 1.35366,-0.90243 l -0.75203,-1.50407 -1.65447,-0.75203 c 0,0 -19.70324,-7.82113 -23.31299,-9.17479 -3.60975,-1.35366 -6.16666,-3.45934 -6.16666,-3.45934 0,0 -1.80488,-4.23247 -4.06097,-6.63897 -0.45122,-0.90244 0.90243,-1.48298 0.90243,-1.48298 l 2.2561,0.60163 c 0,0 13.79802,7.27273 22.23174,8.30845 0,0.14796 1.03572,0.14796 1.03572,0.14796 l 1.18368,-0.14796 c 0,0 -9.76536,-4.4388 -20.86236,-14.0562 -1.18368,-2.2194 -1.77552,-3.99492 -0.29592,-7.10209 1.4796,-3.10716 9.5941,-26.58502 9.26743,-36.71205 -0.32668,-10.12702 -0.65336,-17.9673 -4.90018,-22.21411 -4.24681,-4.24682 -6.86024,-7.18692 -6.86024,-7.18692 l -0.98003,2.61342 1.96007,3.59346 c 0,0 5.22685,9.14699 4.57349,19.60069 -0.65336,10.45371 -4.24682,9.80035 -4.24682,9.80035 0,0 -9.47366,-4.57349 -19.92737,-11.10706 -3.26678,-2.9401 -7.5136,-13.72048 -7.5136,-13.72048 l -0.98003,0.65335 c 0,0 0.65336,12.0871 6.53356,20.58073 -0.32667,0.32668 -1.31614,0.77261 -1.31614,0.77261 l -1.17876,-1.05468 c 0,0 -16.20118,-15.66514 -16.70374,-49.33647 -0.50255,-0.50256 -4.02045,14.57416 -3.5179,23.62019 -0.50255,0 -13.06648,-16.58439 1.00512,-52.26596 14.0716,-35.68156 47.74294,-51.76339 47.74294,-51.76339 0,0 7.0358,-3.51791 12.56393,-5.52813 5.52813,-2.01023 -23.11763,3.01534 -36.68668,10.5537 -5.02557,0.50256 -6.03069,1.50767 -12.56393,1.00511 0,-0.50255 1.50767,-13.56904 26.63553,-22.61507 0,0 -2.51278,-4.52302 -16.08183,2.51278 -0.50256,0 7.99078,-18.12272 7.99078,-18.12272 z"
             id="path225"
             sodipodi:nodetypes="cssccccssssccsccccccccccccccccccccccsssccccccccccccccccccccccccccssscscccsssccccccccccccccccccsccccccccssscccscccccccccscsccccc" /><path
             style="opacity:1;fill:#09b8e0;fill-opacity:1;stroke:none;stroke-width:2.98713;stroke-opacity:1"
             d="m 729.78933,681.48401 c 0,0 -30.34549,-2.75868 -57.01274,5.51736 -26.66725,8.27604 -18.85099,25.28791 -18.85099,34.02373 v 20.69011 l -18.3912,-0.45978 -1.37934,131.95691 c 0,0 25.28791,-1.83912 40.46065,8.27604 0,0 12.87385,-8.27604 8.27604,-33.10417 -4.5978,-24.82813 -5.51736,-25.74769 -8.27604,-36.78241 -2.75868,-11.03473 -5.05758,-18.85099 -4.5978,-30.3455 0.45978,-11.4945 0,-18.85098 6.8967,-28.96615 6.8967,-10.11516 9.05222,-8.28159 9.05222,-8.28159 0,0 -5.94767,13.21705 -3.96511,35.68604 0.33042,-0.33043 8.92151,-13.87791 24.12111,-16.85174 15.19961,-2.97384 28.08623,-2.64341 28.08623,-2.64341 l 8.92151,1.65213 2.64341,1.98256 0.99128,2.31298 0.33042,2.97384 -0.99128,2.31298 -1.98255,1.3217 -2.64341,1.32171 -2.97384,1.65213 -2.64341,2.64341 -1.3217,1.65213 -1.98256,3.63469 -1.32171,2.97384 -0.66085,1.98255 -1.65213,2.97384 -1.65213,2.31298 -2.31298,1.65213 -3.63469,1.98256 -3.63469,0.99128 -4.95639,0.99128 -4.9564,0.66085 -3.30426,0.66085 c 0,0 -4.15957,0.36145 -7.33228,3.30753 -3.1727,2.94608 -4.75905,4.98567 -5.89215,10.31128 -1.13311,5.3256 -1.90428,21.41143 -1.27306,33.40472 0.63123,11.9933 1.26246,19.77842 1.26246,19.77842 l 0.2104,4.8394 v 3.36654 l -0.63122,2.73531 -0.84164,2.10409 -1.68327,3.36654 -3.15613,4.8394 c 0,0 -7.99553,9.6788 -11.57247,12.62452 l -2.3145,1.47286 -1.0069,-0.0755 -1.19466,-0.79644 -1.72562,-1.59288 -1.46014,-1.3274 -1.06192,-0.6637 h -1.19467 l -1.46014,0.26548 -1.85836,1.3274 -4.29352,3.37508 -2.13275,2.13276 -2.13276,2.93254 -6.66486,11.46355 -2.39934,4.53211 -0.53319,2.66594 -0.53319,2.66594 v 2.93254 l 0.26659,3.99891 c 0,0 3.73232,11.46356 17.59523,19.19479 13.8629,7.73124 24.26008,7.73124 28.25899,7.73124 3.99892,0 11.46356,-3.19913 15.72907,-5.59848 4.26551,-2.39935 9.95904,-9.9783 12.34924,-17.06353 0.0854,-0.25609 -17.76794,0.10215 -23.23984,-1.20068 -5.47189,-1.30284 -10.16209,-2.60567 -10.16209,-2.60567 l -0.7817,-1.04227 0.52113,-0.7817 c 0,0 13.68933,3.14597 25.93596,-2.32593 1.26656,-0.56591 2.80509,-1.19352 3.79818,-1.64192 2.34926,-1.06073 3.57466,-1.7614 4.8036,-2.89559 3.27474,-3.02227 3.24442,-6.02501 3.24442,-6.02501 0,0 -19.28193,3.76862 -30.4863,2.98692 0,-0.26056 -5.21133,-1.04226 -5.21133,-1.04226 l -1.30283,-0.7817 0.26057,-1.30283 h 2.60566 c 0,0 26.55339,-6.0602 32.26883,-10.12118 0.1504,-0.1504 1.65447,-1.20325 1.65447,-1.20325 l 1.20325,-0.90244 0.60162,-1.50406 v -1.35366 l -0.90243,-0.45122 -1.35366,-0.30081 -1.65447,0.15041 c 0,0 -12.93495,4.96341 -31.13412,7.2195 -0.15041,0 -1.35366,-0.90243 -1.35366,-0.90243 l 0.75203,-1.50407 1.65447,-0.75203 c 0,0 19.70324,-7.82113 23.31299,-9.17479 3.60975,-1.35366 6.16666,-3.45934 6.16666,-3.45934 0,0 1.80488,-4.23247 4.06097,-6.63897 0.45122,-0.90244 -0.90243,-1.48298 -0.90243,-1.48298 l -2.2561,0.60163 c 0,0 -13.79802,7.27273 -22.23174,8.30845 0,0.14796 -1.03572,0.14796 -1.03572,0.14796 l -1.18368,-0.14796 c 0,0 9.76536,-4.4388 20.86236,-14.0562 1.18368,-2.2194 1.77552,-3.99492 0.29592,-7.10209 -1.4796,-3.10716 -9.5941,-26.58502 -9.26743,-36.71205 0.32668,-10.12702 0.65336,-17.9673 4.90018,-22.21411 4.24681,-4.24682 6.86024,-7.18692 6.86024,-7.18692 l 0.98003,2.61342 -1.96007,3.59346 c 0,0 -5.22685,9.14699 -4.57349,19.60069 0.65336,10.45371 4.24682,9.80035 4.24682,9.80035 0,0 9.47366,-4.57349 19.92737,-11.10706 3.26678,-2.9401 7.5136,-13.72048 7.5136,-13.72048 l 0.98003,0.65335 c 0,0 -0.65336,12.0871 -6.53356,20.58073 0.32667,0.32668 1.31614,0.77261 1.31614,0.77261 l 1.17876,-1.05468 c 0,0 16.20118,-15.66514 16.70374,-49.33647 0.50255,-0.50256 4.02045,14.57416 3.5179,23.62019 0.50255,0 13.06648,-16.58439 -1.00512,-52.26596 -14.0716,-35.68156 -47.74294,-51.76339 -47.74294,-51.76339 0,0 -7.0358,-3.51791 -12.56393,-5.52813 -5.52813,-2.01023 23.11763,3.01534 36.68668,10.5537 5.02557,0.50256 6.03069,1.50767 12.56393,1.00511 0,-0.50255 -1.50767,-13.56904 -26.63553,-22.61507 0,0 2.51278,-4.52302 16.08183,2.51278 0.50256,0 -7.99078,-18.12272 -7.99078,-18.12272 z"
             id="path226"
             sodipodi:nodetypes="cssccccssssccsccccccccccccccccccccccsssccccccccccccccccccccccccccssscscccsssccccccccccccccccccsccccccccssscccscccccccccscsccccc" /><path
             style="opacity:1;fill:#09b8e0;fill-opacity:1;stroke:none;stroke-width:2.98713;stroke-opacity:1"
             d="m 636.21425,883.39062 c 0,0 -13.6239,0.21625 -22.70649,-1.29751 -0.43251,0 -2.37877,1.08126 -2.37877,1.08126 l 0.21624,1.94627 0.64876,1.08126 1.73002,1.73002 19.4627,9.29885 1.29752,0.64876 h 0.86501 1.29751 l 1.51377,-0.43251 3.46003,-1.29751 17.94894,-9.29885 1.29752,-0.86501 0.64876,-0.4325 -0.21626,-1.29752 -0.64875,-1.29751 -1.51377,-0.21625 -5.19005,-0.21626 z"
             id="path227"
             sodipodi:nodetypes="cccccccccccccccccccc" /><path
             style="opacity:1;fill:#09b8e0;fill-opacity:1;stroke:none;stroke-width:2.98713;stroke-opacity:1"
             d="m 728.96679,681.51878 c 28.16499,4.44711 41.8769,15.19428 65.96538,31.87092 24.08849,16.67664 41.87691,36.31802 54.47704,51.51229 12.60013,15.19428 28.16499,44.84164 31.87091,52.99467 3.70592,8.15302 13.34132,38.91216 14.45309,59.66532 1.11178,20.75315 0.74119,20.75315 0,33.72387 -0.74118,12.97073 -3.33533,21.49434 -7.41184,33.72388 -4.07651,12.22954 -11.24105,23.13053 -11.24105,23.13053 l -0.8956,0.59706 -0.89559,0.59707 h -0.29854 l -0.59706,-0.4478 v -0.59707 l 0.29853,-1.34339 c 0,0 4.92579,-8.06037 4.47799,-22.38992 -0.4478,-14.32956 -1.30007,-21.91129 -2.84665,-29.86513 -1.54658,-7.95383 -6.84913,-34.46662 -11.70981,-49.26959 -4.86068,-14.80297 -10.60511,-27.61748 -10.60511,-27.61748 0,0 3.97691,23.19868 5.08161,49.93241 0.22094,0.22094 -22.7568,-56.33967 -41.97857,-75.11956 -19.22177,-18.77989 -57.86469,-72.44618 -57.86469,-72.44618 l -0.51011,-1.02022 v -0.76516 l 0.38259,-0.51012 h 0.89269 l 1.02022,0.8927 c 0,0 2.93314,2.67808 22.5724,13.64546 19.63926,10.96738 58.91779,47.56783 58.91779,47.56783 l 1.14775,0.51011 -14.69206,-20.27198 -14.24945,-17.75913 c 0,0 -11.55479,-13.2724 -21.39198,-22.64115 -9.83719,-9.36875 -20.61125,-19.83052 -25.92021,-23.73417 -5.30896,-3.90365 -9.99333,-7.80729 -14.99,-10.30563 -4.99667,-2.49833 -11.08636,-5.4651 -14.67771,-6.71427"
             id="path228"
             sodipodi:nodetypes="csssssscccccccsssccsccccccsccccsssc" /><path
             style="opacity:1;fill:#09b8e0;fill-opacity:1;stroke:none;stroke-width:2.98713;stroke-opacity:1"
             d="m 636.22522,958.06742 -42.83854,20.83783 c 0,0 -11.94084,1.94953 -0.97476,19.49525 10.96607,17.5457 36.24353,19.4953 44.04163,19.2516 0.24369,0 -0.22833,-59.58468 -0.22833,-59.58468 z"
             id="path229"
             sodipodi:nodetypes="ccscc" /><path
             style="opacity:1;fill:#09b8e0;fill-opacity:1;stroke:none;stroke-width:2.98713;stroke-opacity:1"
             d="m 635.84015,957.58004 42.17384,20.35045 c 0,0 13.15929,3.41167 2.19321,20.95739 -10.96607,17.54572 -36.06621,19.49532 -43.86431,19.25162 -0.24369,0 -0.50274,-60.55946 -0.50274,-60.55946 z"
             id="path230"
             sodipodi:nodetypes="ccscc" /><path
             style="opacity:1;fill:#09b8e0;fill-opacity:1;stroke:none;stroke-width:2.98713;stroke-opacity:1"
             d="m 486.426,803.42974 c 0,0 -44.92966,24.64891 -59.90621,93.91547 -14.97656,69.26656 10.60839,108.89199 10.60839,108.89199 0,0 6.86425,12.1685 11.85644,19.0327 0.62402,0 -7.17627,-25.27289 -6.86426,-38.06536 -0.31201,-0.31202 12.48046,55.22606 39.62547,74.57076 -0.31201,0 -20.59276,-24.9609 -10.29638,-91.7314 10.29638,-66.77047 49.29782,-102.02777 49.29782,-102.02777 v -1.24805 l -1.56005,-1.56006 c 0,0 -4.05615,0.62402 -12.16846,3.43213 -8.1123,2.8081 -17.16063,12.79247 -22.15282,19.96874 -4.99218,7.17626 -18.40868,32.4492 -24.3369,53.35397 0,-0.31201 -0.93603,-59.90621 41.80955,-106.70795 0.31201,-0.31201 -35.2573,14.35253 -51.16989,58.03415 0,-0.31201 9.98437,-59.5942 35.2573,-89.85932 z"
             id="path231" /><path
             style="opacity:1;fill:#09b8e0;fill-opacity:1;stroke:none;stroke-width:2.98713;stroke-opacity:1"
             d="m 784.3718,804.12368 c 0,0 44.92966,24.64891 59.90621,93.91547 14.97656,69.26656 -10.60839,108.89195 -10.60839,108.89195 0,0 -6.86425,12.1685 -11.85644,19.0327 -0.62402,0 7.17627,-25.2729 6.86426,-38.06532 0.31201,-0.31202 -12.48046,55.22602 -39.62547,74.57072 0.31201,0 20.59276,-24.9609 10.29638,-91.73136 -10.29638,-66.77047 -49.29782,-102.02777 -49.29782,-102.02777 v -1.24805 l 1.56005,-1.56006 c 0,0 4.05615,0.62402 12.16846,3.43213 8.1123,2.8081 17.16063,12.79247 22.15282,19.96874 4.99218,7.17626 18.40868,32.4492 24.3369,53.35397 0,-0.31201 0.93603,-59.90621 -41.80955,-106.70795 -0.31201,-0.31201 35.2573,14.35253 51.16989,58.03415 0,-0.31201 -9.98437,-59.5942 -35.2573,-89.85932 z"
             id="path232" /><path
             style="opacity:1;fill:#09b8e0;fill-opacity:1;stroke:none;stroke-width:2.98713;stroke-opacity:1"
             d="m 510.91966,905.3945 c 0,0 -80.70689,133.6888 66.28247,226.3041 0,-0.5975 -42.42376,-37.6436 -40.63121,-155.35462 -0.59751,0 -8.36524,29.87592 -7.76773,48.39892 0,-0.5975 -20.3156,-43.02126 -15.53546,-103.96807 l -0.22517,-1.71574 -1.25701,-0.35914 -0.89787,-0.7183 -0.89787,-1.07744 v -2.69361 l 0.89787,-3.59148 1.25701,-2.51403 0.35915,-1.61617 z"
             id="path233" /><path
             style="opacity:1;fill:#09b8e0;fill-opacity:1;stroke:none;stroke-width:2.98713;stroke-opacity:1"
             d="m 758.15391,903.28969 c 0,0 81.72729,134.40051 -63.20502,230.20281 -0.013,-0.5973 43.47092,-41.0663 39.10887,-158.71021 0.59737,-0.013 9.01552,29.68621 8.82255,48.21781 -0.013,-0.5973 19.3715,-43.45456 13.26188,-104.28248 l 0.18765,-1.72024 1.24887,-0.3865 0.88198,-0.73773 0.87413,-1.09679 -0.0588,-2.69297 -0.97606,-3.57102 -1.3116,-2.48599 -0.39435,-1.60794 z"
             id="path234"
             sodipodi:nodetypes="cccccccccccccc" /><path
             style="opacity:1;fill:#09b8e0;fill-opacity:1;stroke:none;stroke-width:2.98713;stroke-opacity:1"
             d="m 557.85957,993.68735 c 0,0 -17.43311,58.36305 24.63374,101.56685 25.01273,29.9395 35.24521,40.1719 39.79297,47.7515 4.54777,7.5797 5.68471,14.7803 5.68471,14.7803 0,0 -13.6433,-20.465 -27.66559,-33.3503 -9.47451,-11.7484 -24.21592,-26.521 -34.62436,-48.6243 -5.14575,-10.6423 -6.31523,-12.3965 -6.31523,-12.3965 l -0.7017,-0.4678 -0.58474,0.7017 v 1.7542 2.1051 c 0,0 10.79611,27.9091 26.32684,45.1933 15.53072,17.2842 34.56839,39.3278 39.3278,47.3437 4.75942,8.0158 10.52082,17.7852 11.7733,25.0495 l 0.25049,-106.7111 c 0,0 -6.51288,-28.0555 -22.5446,-42.3337 -0.50099,-0.2505 -0.50099,5.5109 1.25248,11.7732 1.75347,6.2624 1.50297,9.0179 1.50297,9.0179 l -1.50297,-1.7535 c 0,0 -5.51091,-17.0337 -13.27627,-23.2961 -0.50099,-0.2505 4.25843,42.3338 17.2842,79.6576 -0.75149,0.7515 -3.50694,-0.7515 -3.50694,-0.7515 0,0 -33.56641,-43.0852 -50.09912,-96.4408 0,-0.501 -0.97896,-0.4803 -0.97896,-0.4803 l -0.32619,1.2232 c 0,0 0.89701,7.6653 3.34338,22.5066 0,1.3047 -1.22319,0.9785 -1.22319,0.9785 l -0.73391,-1.7124 c 0,0 -5.95284,-24.953 -5.13738,-40.44671 0.0815,-0.0815 0,-0.897 0,-0.897 l -0.40773,-0.73391 -0.40773,-0.65237 -0.32618,-0.32618 z"
             id="path235" /><path
             style="opacity:1;fill:#09b8e0;fill-opacity:1;stroke:none;stroke-width:2.98713;stroke-opacity:1"
             d="m 713.58754,994.1868 c 0,0 17.43311,58.3631 -24.63374,101.5669 -25.01273,29.9395 -35.24521,40.1719 -39.79297,47.7515 -4.54777,7.5797 -5.68471,14.7803 -5.68471,14.7803 0,0 13.6433,-20.465 27.66559,-33.3503 9.47451,-11.7484 24.21592,-26.521 34.62436,-48.6243 5.14575,-10.6423 6.31523,-12.3965 6.31523,-12.3965 l 0.7017,-0.4678 0.58474,0.7017 v 1.7542 2.1051 c 0,0 -10.79611,27.9091 -26.32684,45.1933 -15.53072,17.2842 -34.56839,39.3278 -39.3278,47.3437 -4.75942,8.0158 -10.52082,17.7852 -11.7733,25.0495 l -0.25049,-106.7111 c 0,0 6.51288,-28.0555 22.5446,-42.3337 0.50099,-0.2505 0.50099,5.5109 -1.25248,11.7732 -1.75347,6.2624 -1.50297,9.0179 -1.50297,9.0179 l 1.50297,-1.7535 c 0,0 5.51091,-17.0337 13.27627,-23.2961 0.50099,-0.2505 -4.25843,42.3338 -17.2842,79.6576 0.75149,0.7515 3.50694,-0.7515 3.50694,-0.7515 0,0 33.56641,-43.0852 50.09912,-96.4408 0,-0.501 0.97896,-0.4803 0.97896,-0.4803 l 0.32619,1.2232 c 0,0 -0.89701,7.6653 -3.34338,22.5066 0,1.3047 1.22319,0.9785 1.22319,0.9785 l 0.73391,-1.7124 c 0,0 5.95284,-24.953 5.13738,-40.44676 -0.0815,-0.0815 0,-0.897 0,-0.897 l 0.40773,-0.73391 0.40773,-0.65237 0.32618,-0.32618 z"
             id="path236" /><path
             style="opacity:1;fill:#09b8e0;fill-opacity:1;stroke:none;stroke-width:2.98713;stroke-opacity:1"
             d="m 511.43686,1118.2687 124.36306,120.3674 v -21.4763 c 0,0 -33.46315,-46.4489 -70.42246,-63.4302 -36.9593,-16.9813 -53.9406,-35.4609 -53.9406,-35.4609 z"
             id="path237" /><path
             style="opacity:1;fill:#09b8e0;fill-opacity:1;stroke:none;stroke-width:2.98713;stroke-opacity:1"
             d="m 760.66243,1118.7681 -124.36306,120.3674 v -21.4763 c 0,0 33.46315,-46.4489 70.42246,-63.4302 36.9593,-16.9813 53.9406,-35.4609 53.9406,-35.4609 z"
             id="path238" /><path
             style="opacity:1;fill:#09b8e0;fill-opacity:1;stroke:none;stroke-width:2.98713;stroke-opacity:1"
             d="m 539.40622,559.61452 c 0,0 67.62008,-24.87176 97.15529,20.98554 0,-0.77724 0,84.71942 0,84.71942 0,0 -13.21312,-73.06078 -97.15529,-105.70496 z"
             id="path239"
             sodipodi:nodetypes="cccc" /><path
             style="opacity:1;fill:#09b8e0;fill-opacity:1;stroke:none;stroke-width:2.98713;stroke-opacity:1"
             d="m 731.38508,560.39176 c 0,0 -66.06559,-26.42625 -95.6008,19.43105 0,-0.77724 0.77724,89.38288 0.77724,89.38288 0,0 10.88139,-76.16975 94.82356,-108.81393 z"
             id="path240"
             sodipodi:nodetypes="cccc" /><path
             style="opacity:1;fill:#09b8e0;fill-opacity:1;stroke:none;stroke-width:2.98713;stroke-opacity:1"
             d="m 471.78613,595.36766 c 0,0 38.08487,-33.42142 87.82839,-13.21312 49.74351,20.20831 55.96145,57.51594 54.40696,75.39252 -1.55448,17.87657 -3.10897,20.2083 -3.10897,20.2083 0,0 -42.74833,-87.05115 -139.12638,-82.3877 z"
             id="path241"
             sodipodi:nodetypes="csscc" /><path
             style="opacity:1;fill:#09b8e0;fill-opacity:1;stroke:none;stroke-width:2.98713;stroke-opacity:1"
             d="m 801.2183,595.80046 c 0,0 -38.08487,-33.42142 -87.82839,-13.21312 -49.74351,20.20831 -55.96145,57.51594 -54.40696,75.39252 1.55448,17.87657 3.10897,20.2083 3.10897,20.2083 0,0 42.74833,-87.05115 139.12638,-82.3877 z"
             id="path242"
             sodipodi:nodetypes="csscc" /><path
             style="opacity:1;fill:#09b8e0;fill-opacity:1;stroke:none;stroke-width:2.98713;stroke-opacity:1"
             d="m 421.04131,656.59829 c 0,0 28.15226,-51.4556 72.45508,-46.79215 44.30281,4.66346 31.91946,4.21534 56.01397,17.42846 24.09452,13.21312 34.75185,46.73961 34.75185,46.73961 l -18.15317,-14.66254 -2.10766,9.10285 c 0,0 -71.45377,-64.66871 -142.96007,-11.81623 z"
             id="path243"
             sodipodi:nodetypes="csscccc" /><path
             style="opacity:1;fill:#09b8e0;fill-opacity:1;stroke:none;stroke-width:2.98713;stroke-opacity:1"
             d="m 851.17284,655.76851 c 0,0 -28.15226,-51.4556 -72.45508,-46.79215 -44.30281,4.66346 -31.91946,4.21534 -56.01397,17.42846 -24.09452,13.21312 -34.75185,46.73961 -34.75185,46.73961 l 18.15317,-14.66254 2.10766,9.10285 c 0,0 71.45377,-64.66871 142.96007,-11.81623 z"
             id="path244"
             sodipodi:nodetypes="csscccc" /><path
             style="opacity:1;fill:#09b8e0;fill-opacity:1;stroke:none;stroke-width:2.98713;stroke-opacity:1"
             d="m 447.21009,723.52984 c 0,0 -16.38068,-24.34967 0,-51.79838 16.38069,-27.44871 45.60028,-13.72435 47.37117,-11.51075 1.77088,2.21361 6.19809,4.42722 9.29714,9.73987 3.09905,5.31265 4.42721,12.83891 4.42721,12.83891 l -5.75537,6.64082 c 0,0 -13.28164,-24.79238 -36.30314,-13.28163 -23.0215,11.51074 -9.09191,37.46349 -9.09191,37.46349 v 1.27556 0.85037 l -0.25511,0.51023 -0.59527,0.17007 -1.44563,-0.085 -0.6803,-0.76534 -0.76534,-1.02045 c 0,0 -6.94925,-11.06102 -5.94029,-15.09686 -0.50448,-0.25224 -1.53527,14.84259 -0.26316,24.06912 z"
             id="path245" /><path
             style="opacity:1;fill:#09b8e0;fill-opacity:1;stroke:none;stroke-width:2.98713;stroke-opacity:1"
             d="m 822.53263,724.06764 c 0,0 16.38068,-24.34967 0,-51.79838 -16.38069,-27.44871 -45.60028,-13.72435 -47.37117,-11.51075 -1.77088,2.21361 -6.19809,4.42722 -9.29714,9.73987 -3.09905,5.31265 -4.42721,12.83891 -4.42721,12.83891 l 5.75537,6.64082 c 0,0 13.28164,-24.79238 36.30314,-13.28163 23.0215,11.51074 9.09191,37.46349 9.09191,37.46349 v 1.27556 0.85037 l 0.25511,0.51023 0.59527,0.17007 1.44563,-0.085 0.6803,-0.76534 0.76534,-1.02045 c 0,0 6.94925,-11.06102 5.94029,-15.09686 0.50448,-0.25224 1.53527,14.84259 0.26316,24.06912 z"
             id="path246" /><path
             style="opacity:1;fill:#09b8e0;fill-opacity:1;stroke:none;stroke-width:2.98713;stroke-opacity:1"
             d="m 545.35939,780.72137 v -3.81856 l 0.52071,-1.04142 1.215,-0.34714 1.73571,0.34714 1.38856,1.04142 1.38857,0.69429 1.38856,1.04142 v 2.60356 l 1.56214,0.34714 h 5.72784 l 3.64498,0.17357 1.38857,1.04143 v 1.90928 c 0,0 -3.47142,6.07497 -8.67854,5.72783 -5.20712,-0.34714 -8.67854,-2.77713 -10.24067,-5.55426 -1.56214,-2.77713 -1.04143,-4.1657 -1.04143,-4.1657 z"
             id="path247" /><path
             style="opacity:1;fill:#09b8e0;fill-opacity:1;stroke:none;stroke-width:2.98713;stroke-opacity:1"
             d="m 726.0699,781.4286 0.2038,-3.81312 -0.46439,-1.06773 -1.19474,-0.41149 -1.75176,0.25401 -1.44216,0.96583 -1.42365,0.61919 -1.44216,0.96583 -0.13895,2.59985 -1.57844,0.26327 -5.71968,-0.30569 -3.64905,-0.0212 -1.44217,0.96584 -0.1019,1.90656 c 0,0 3.14225,6.25158 8.36048,6.18284 5.21822,-0.0687 8.81438,-2.30999 10.5225,-4.99979 1.70813,-2.6898 1.26227,-4.10418 1.26227,-4.10418 z"
             id="path248" /></g><path
           style="fill:#09b8e0;fill-opacity:1;stroke:none;stroke-width:0.296385;stroke-opacity:1"
           d="m 1432.1766,536.78313 -22.8048,-22.79582 c 0,0 -1.2579,-1.04604 -0.9085,-2.30129 0.3494,-1.25525 1.5375,-4.95126 6.2898,-6.62493 1.4676,-0.27894 2.3761,0.55789 2.3761,0.55789 l 17.0524,16.45772 c 0,0 -1.258,1.67367 -1.9569,4.04469 l -13.6977,-13.04065 13.6977,14.50511 2.2364,-0.55789 c 0,0 -0.2795,4.0447 0,6.97361 -0.07,0 -20.966,-19.38663 -20.966,-19.38663 l 19.8478,20.22346 z"
           id="path249" /><path
           style="fill:#09b8e0;fill-opacity:1;stroke:none;stroke-width:0.296385;stroke-opacity:1"
           d="m 1480.6186,536.73922 22.8049,-22.79582 c 0,0 1.2579,-1.04604 0.9085,-2.30129 -0.3495,-1.25525 -1.5375,-4.95126 -6.2898,-6.62493 -1.4676,-0.27894 -2.3761,0.55789 -2.3761,0.55789 l -17.0524,16.45772 c 0,0 1.258,1.67367 1.9568,4.04469 l 13.6978,-13.04065 -13.6977,14.50511 -2.2364,-0.55789 c 0,0 0.2795,4.04469 0,6.97361 0.07,0 20.9659,-19.38663 20.9659,-19.38663 l -19.8477,20.22346 z"
           id="path250" /><g
           id="g252"
           transform="matrix(0.09932728,0,0,0.09911346,1393.1582,459.6629)"
           style="stroke-width:2.98247"><g
             id="g250"
             transform="translate(31.448946,-17.111927)"
             style="stroke-width:2.98247" /><g
             id="g251"
             transform="translate(18.961865,-10.174659)"
             style="stroke-width:2.98247"><path
               style="opacity:1;fill:#056284;fill-opacity:1;stroke:none;stroke-width:2.98713;stroke-opacity:1"
               d="m 352.83315,1232.6736 -1.24221,-1.8875 5.75388,-3.2601 z"
               id="path251" /></g></g><g
           id="g256"
           style="fill:#09b8e0;fill-opacity:1;stroke-width:2.98247"
           transform="matrix(0.09932728,0,0,0.09911346,1393.1582,459.6629)"><path
             style="fill:#09b8e0;fill-opacity:1;stroke:none;stroke-width:2.98713;stroke-opacity:1"
             d="m 328.1027,1165.1568 c 20.38194,-3.031 39.82546,14.1848 49.38133,30.4822 8.53505,15.8508 14.63151,31.092 7.92541,35.9691 -6.70611,4.8772 -17.67975,-0.6096 -24.9955,-4.2675 -7.31575,-3.6578 -37.79805,-29.263 -32.31124,-62.1838 z"
             id="path252"
             sodipodi:nodetypes="csssc" /><g
             id="g255"
             style="fill:#09b8e0;fill-opacity:1;stroke-width:2.98247"><path
               style="fill:#d8d8db;fill-opacity:1;stroke:none;stroke-width:0.296385;stroke-opacity:1"
               d="m 1429.1525,580.03843 c 0,0 0.3556,0.16969 0.6029,0.61707 0.2474,0.44737 0.8349,0.66335 1.0668,0.66335 0.2319,0 0.1546,0.0154 0.1546,0.0154 l 0.093,-0.0154 0.1237,-0.0926 0.062,-0.10798 0.015,-0.15427 -0.031,-0.15427 c 0,0 -0.2783,-0.89475 -1.0358,-1.52724 -0.1855,-0.0154 -0.2165,0.12342 -0.2165,0.12342 l 0.046,0.21596 c 0,0 0.2319,-0.20053 0.4174,0.49367 -0.2009,0.0154 -0.9585,-0.0617 -0.9585,-0.0617 l -0.1082,-0.0308 z"
               id="path253"
               sodipodi:nodetypes="cssccccccccccccc"
               transform="matrix(10.067728,0,0,10.089447,-14025.937,-4637.7445)" /><path
               style="fill:#09b8e0;fill-opacity:1;stroke:none;stroke-width:2.98713;stroke-opacity:1"
               d="m 405.50469,1129.1172 c 12.42608,-11.5976 55.50319,-51.7753 55.50319,-51.7753 l 2.48522,-1.6568 2.48522,0.8284 c 0,0 10.14383,11.4665 19.47209,27.0771 0.19038,1.7134 -0.95186,2.0941 -0.95186,2.0941 0,0 -11.42236,-15.0394 -12.37423,-12.9453 -0.95186,2.0941 -0.76149,4.1882 1.71336,8.7571 2.47484,4.569 5.33043,11.0416 5.33043,11.0416 l -0.38074,0.7615 h -0.57112 l -0.76149,-0.7615 c 0,0 -6.09193,-12.3742 -14.27795,-15.9913 -1.52299,2.0941 -1.52299,4.7593 -0.57112,6.6631 0.95186,1.9037 5.52081,11.0416 8.56677,16.372 0.38075,2.0941 -0.38075,2.2845 -0.38075,2.2845 l -1.14223,-0.5711 c 0,0 -8.18603,-11.8031 -13.13572,-15.2298 -1.90373,1.1422 -2.0941,3.4267 -2.0941,3.4267 v 1.5229 c 0,0 6.85342,9.5187 8.94752,16.5625 -0.19037,1.1422 -1.52298,0.9518 -1.52298,0.9518 l -11.04162,-13.8972 -1.33261,-0.7615 -1.52298,0.5712 -0.76149,2.0941 -0.19037,1.9037 0.38074,2.6652 c 0,0 2.66522,4.7593 7.04379,11.232 0.57112,1.7133 -0.19037,2.6652 -0.19037,2.6652 l -1.33261,-0.7615 c 0,0 -8.18603,-10.0897 -11.99348,-12.3742 -2.0941,1.3326 -2.85559,3.6171 -2.85559,3.6171 v 1.7133 c 0,0 4.37857,8.9475 7.61491,13.7069 0.19037,2.2844 -0.38075,3.2363 -0.38075,3.2363 l -1.71335,-1.1422 -10.08976,-12.755 -1.71335,-0.9519 -0.76149,0.3808 -0.95187,1.7133 -0.19037,1.7134 v 1.3326 l 0.19037,0.7615 0.95187,1.7133 2.47484,3.9979 c 0,0 3.99783,5.9015 4.1882,7.9956 0.19038,2.0941 -1.71335,0.7615 -1.71335,0.7615 0,0 -7.42454,-10.0898 -11.80311,-12.755 -1.52298,1.523 -2.28447,4.1882 -2.28447,4.1882 l 0.38074,1.523 c 0,0 6.09193,10.4705 7.99566,13.3261 0.95186,2.4748 0.19037,3.4267 0.19037,3.4267 l -11.42236,-13.1357"
               id="path254"
               sodipodi:nodetypes="ccccccsscccccsccccccccccccccccccccccccccccccccsccccccc" /><path
               style="fill:#09b8e0;fill-opacity:1;stroke:none;stroke-width:2.98713;stroke-opacity:1"
               d="m 417.95255,1144.8475 -1.44704,1.4471 -0.36176,1.3264 -0.36176,2.1706 c 0,0 1.44704,7.1146 6.87343,14.7115 0,1.3265 -0.48235,2.2911 -0.48235,2.2911 l -0.96469,-0.1205 c 0,0 -4.22052,-8.3205 -12.66157,-13.5057 -1.20587,0.7235 -1.8088,2.2911 -1.8088,2.2911 v 1.4471 c 0,0 5.78815,6.0293 8.32046,16.038 -1.08527,0.3617 -12.29981,-11.3352 -12.29981,-11.3352 l -1.20586,-0.7235 -1.20587,0.3618 -0.72352,0.4823 -0.48234,1.3265 -0.24118,1.0852 0.48235,1.8088 0.72352,2.05 c 0,0 5.3058,6.2705 6.99401,12.9028 -1.20586,0.7235 -2.53231,-0.4824 -2.53231,-0.4824 l -1.68821,-1.9294 c 0,0 -6.14991,-8.6822 -10.37044,-10.6116 -0.96469,0.9647 -1.56762,1.2059 -1.32645,3.9794 0.24118,2.7735 -0.24117,4.2205 0.84411,6.6322 1.08528,2.4118 4.70287,8.3205 4.70287,8.3205 v 1.3264 l -0.24117,0.2412 h -1.08528 c 0,0 -4.94405,-5.4264 -7.1146,-9.5263 -1.08528,0.1206 -0.96469,1.8088 -0.96469,1.8088 0,0 6.1499,10.7322 7.71753,13.5057 0,1.0852 -0.60293,1.9293 -0.60293,1.9293 0,0 -20.74087,-21.9467 -30.2672,-29.423 0,-0.1206 -0.36176,-0.9647 -0.36176,-0.9647 l 0.60294,-1.0853 41.7229,-35.8142 z"
               id="path255"
               sodipodi:nodetypes="cccccccccccccccccccccccssccccccccccccc" /></g></g><g
           id="g261"
           style="fill:#09b8e0;fill-opacity:1;stroke-width:2.98247"
           transform="matrix(0.09932728,0,0,0.09911346,1393.1582,459.6629)"><g
             id="g259"
             transform="matrix(-1,0,0,1,1270.1656,-2.8513532e-7)"
             style="fill:#09b8e0;fill-opacity:1;stroke-width:2.98247"><g
               id="g257"
               transform="translate(31.448946,-17.111927)"
               style="fill:#09b8e0;fill-opacity:1;stroke-width:2.98247"><path
                 style="opacity:1;fill:#09b8e0;fill-opacity:1;stroke:none;stroke-width:2.98713;stroke-opacity:1"
                 d="m 296.65375,1182.2687 c 20.38194,-3.031 39.82546,14.1848 49.38133,30.4822 8.53505,15.8508 14.63151,31.092 7.92541,35.9691 -6.70611,4.8772 -17.67975,-0.6096 -24.9955,-4.2675 -7.31575,-3.6578 -37.79805,-29.263 -32.31124,-62.1838 z"
                 id="path256"
                 sodipodi:nodetypes="csssc" /></g><g
               id="g258"
               transform="translate(18.961865,-10.174659)"
               style="fill:#09b8e0;fill-opacity:1;stroke-width:2.98247"><path
                 style="opacity:1;fill:#c8c8c8;fill-opacity:1;stroke:none;stroke-width:2.98713;stroke-opacity:1"
                 d="m 343.41931,1224.6972 c 0,0 3.57988,1.7121 6.07023,6.2259 2.49035,4.5137 8.40493,6.6928 10.73963,6.6928 2.3347,0 1.55647,0.1556 1.55647,0.1556 l 0.93388,-0.1556 1.24518,-0.9339 0.62258,-1.0895 0.15565,-1.5565 -0.31129,-1.5565 c 0,0 -2.80165,-9.0275 -10.42834,-15.409 -1.86777,-0.1556 -2.17906,1.2452 -2.17906,1.2452 l 0.46694,2.179 c 0,0 2.33471,-2.0233 4.20247,4.9808 -2.02341,0.1556 -9.65011,-0.6226 -9.65011,-0.6226 l -1.08953,-0.3113 z"
                 id="path257"
                 sodipodi:nodetypes="cssccccccccccccc" /><path
                 style="opacity:1;fill:#09b8e0;fill-opacity:1;stroke:none;stroke-width:2.98713;stroke-opacity:1"
                 d="m 352.83315,1232.6736 -1.24221,-1.8875 5.75388,-3.2601 z"
                 id="path258" /></g></g><g
             id="g260"
             transform="matrix(-1,0,0,1,1270.301,-6.5903091e-8)"
             style="fill:#09b8e0;fill-opacity:1;stroke-width:2.98247"><path
               style="fill:#09b8e0;fill-opacity:1;stroke:none;stroke-width:2.98713;stroke-opacity:1"
               d="m 405.50469,1129.1172 c 12.42608,-11.5976 55.50319,-51.7753 55.50319,-51.7753 l 2.48522,-1.6568 2.48522,0.8284 c 0,0 10.14383,11.4665 19.47209,27.0771 0.19038,1.7134 -0.95186,2.0941 -0.95186,2.0941 0,0 -11.42236,-15.0394 -12.37423,-12.9453 -0.95186,2.0941 -0.76149,4.1882 1.71336,8.7571 2.47484,4.569 5.33043,11.0416 5.33043,11.0416 l -0.38074,0.7615 h -0.57112 l -0.76149,-0.7615 c 0,0 -6.09193,-12.3742 -14.27795,-15.9913 -1.52299,2.0941 -1.52299,4.7593 -0.57112,6.6631 0.95186,1.9037 5.52081,11.0416 8.56677,16.372 0.38075,2.0941 -0.38075,2.2845 -0.38075,2.2845 l -1.14223,-0.5711 c 0,0 -8.18603,-11.8031 -13.13572,-15.2298 -1.90373,1.1422 -2.0941,3.4267 -2.0941,3.4267 v 1.5229 c 0,0 6.85342,9.5187 8.94752,16.5625 -0.19037,1.1422 -1.52298,0.9518 -1.52298,0.9518 l -11.04162,-13.8972 -1.33261,-0.7615 -1.52298,0.5712 -0.76149,2.0941 -0.19037,1.9037 0.38074,2.6652 c 0,0 2.66522,4.7593 7.04379,11.232 0.57112,1.7133 -0.19037,2.6652 -0.19037,2.6652 l -1.33261,-0.7615 c 0,0 -8.18603,-10.0897 -11.99348,-12.3742 -2.0941,1.3326 -2.85559,3.6171 -2.85559,3.6171 v 1.7133 c 0,0 4.37857,8.9475 7.61491,13.7069 0.19037,2.2844 -0.38075,3.2363 -0.38075,3.2363 l -1.71335,-1.1422 -10.08976,-12.755 -1.71335,-0.9519 -0.76149,0.3808 -0.95187,1.7133 -0.19037,1.7134 v 1.3326 l 0.19037,0.7615 0.95187,1.7133 2.47484,3.9979 c 0,0 3.99783,5.9015 4.1882,7.9956 0.19038,2.0941 -1.71335,0.7615 -1.71335,0.7615 0,0 -7.42454,-10.0898 -11.80311,-12.755 -1.52298,1.523 -2.28447,4.1882 -2.28447,4.1882 l 0.38074,1.523 c 0,0 6.09193,10.4705 7.99566,13.3261 0.95186,2.4748 0.19037,3.4267 0.19037,3.4267 l -11.42236,-13.1357"
               id="path259"
               sodipodi:nodetypes="ccccccsscccccsccccccccccccccccccccccccccccccccsccccccc" /><path
               style="fill:#09b8e0;fill-opacity:1;stroke:none;stroke-width:2.98713;stroke-opacity:1"
               d="m 417.95255,1144.8475 -1.44704,1.4471 -0.36176,1.3264 -0.36176,2.1706 c 0,0 1.44704,7.1146 6.87343,14.7115 0,1.3265 -0.48235,2.2911 -0.48235,2.2911 l -0.96469,-0.1205 c 0,0 -4.22052,-8.3205 -12.66157,-13.5057 -1.20587,0.7235 -1.8088,2.2911 -1.8088,2.2911 v 1.4471 c 0,0 5.78815,6.0293 8.32046,16.038 -1.08527,0.3617 -12.29981,-11.3352 -12.29981,-11.3352 l -1.20586,-0.7235 -1.20587,0.3618 -0.72352,0.4823 -0.48234,1.3265 -0.24118,1.0852 0.48235,1.8088 0.72352,2.05 c 0,0 5.3058,6.2705 6.99401,12.9028 -1.20586,0.7235 -2.53231,-0.4824 -2.53231,-0.4824 l -1.68821,-1.9294 c 0,0 -6.14991,-8.6822 -10.37044,-10.6116 -0.96469,0.9647 -1.56762,1.2059 -1.32645,3.9794 0.24118,2.7735 -0.24117,4.2205 0.84411,6.6322 1.08528,2.4118 4.70287,8.3205 4.70287,8.3205 v 1.3264 l -0.24117,0.2412 h -1.08528 c 0,0 -4.94405,-5.4264 -7.1146,-9.5263 -1.08528,0.1206 -0.96469,1.8088 -0.96469,1.8088 0,0 6.1499,10.7322 7.71753,13.5057 0,1.0852 -0.60293,1.9293 -0.60293,1.9293 0,0 -20.74087,-21.9467 -30.2672,-29.423 0,-0.1206 -0.36176,-0.9647 -0.36176,-0.9647 l 0.60294,-1.0853 41.7229,-35.8142 z"
               id="path260"
               sodipodi:nodetypes="cccccccccccccccccccccccssccccccccccccc" /></g></g><g
           id="g264"
           style="fill:#09b8e0;fill-opacity:1;stroke-width:2.98247"
           transform="matrix(0.09932728,0,0,0.09911346,1393.1582,459.6629)"><path
             style="opacity:1;fill:#09b8e0;fill-opacity:1;stroke:none;stroke-width:2.98713;stroke-opacity:1"
             d="m 220.36376,900.0482 c -7.00794,-7.00793 -31.01655,-51.67564 8.95227,-91.58868 24.79092,-24.10229 68.86367,-13.0841 68.86367,-13.0841 0,0 -41.3182,33.05456 -67.4864,74.37276 -0.68863,0.68864 -5.50909,2.06591 -11.70682,-25.47955 0.68863,0.68863 -4.82046,20.6591 1.37728,55.77957 z"
             id="path261"
             sodipodi:nodetypes="cccccc" /><path
             style="opacity:1;fill:#09b8e0;fill-opacity:1;stroke:none;stroke-width:2.98713;stroke-opacity:1"
             d="m 254.95524,926.50561 c 0,0 30.54913,12.07649 64.88605,-20.00141 34.33691,-32.0779 13.48425,-82.58221 8.8737,-86.16819 -0.17076,0 -48.15461,33.12764 -67.10908,78.20856 0.17076,-0.34153 61.30321,5.46435 68.47517,-46.27624 -0.17076,-0.17076 5.97664,29.88318 -13.1486,49.69146 -7.34272,7.68424 -11.15734,10.74347 -24.64746,17.40315 -8.70881,3.58598 -8.15556,5.19654 -37.32978,7.14267 z"
             id="path262"
             sodipodi:nodetypes="cscccccc" /><path
             style="opacity:1;fill:#09b8e0;fill-opacity:1;stroke:none;stroke-width:2.98713;stroke-opacity:1"
             d="m 243.44242,922.32797 c 0,0 -1.44906,-24.99632 11.77363,-45.10206 13.22269,-20.10573 19.01894,-28.8001 29.8869,-38.7624 10.86797,-9.96231 25.90198,-23.00386 29.16237,-24.63406 3.26039,-1.63019 5.41808,-3.00455 5.41808,-3.00455 l 1.0842,-0.30977 0.92931,-0.15489 h 0.69698 l 0.61954,0.30977 0.23233,0.23233 v 0.38722 l -0.0774,0.46465 -0.23233,0.69699 -0.38721,0.69698 -1.70374,0.85187 c 0,0 -30.15132,20.5344 -45.11134,39.89443 -14.96002,19.36003 -22.58669,34.32005 -24.3467,40.18672 -1.76,5.86667 -4.69334,12.90668 -4.98667,20.24003 -0.29333,7.33334 -1.17647,8.32899 -1.17647,8.32899 l -0.59387,0.18273 -0.68524,0.0457 z"
             id="path263" /><path
             style="opacity:1;fill:#09b8e0;fill-opacity:1;stroke:none;stroke-width:2.98713;stroke-opacity:1"
             d="m 227.78153,910.41466 c 0,0 0.62309,-20.80444 14.17318,-40.691 13.48014,-19.78392 20.70435,-26.79255 31.30247,-37.81869 11.06059,-11.50729 24.78931,-24.35885 27.7468,-26.04963 3.16457,-1.80917 4.94622,-3.00455 4.94622,-3.00455 l 1.0842,-0.30977 0.92931,-0.15489 h 0.69698 l 0.61954,0.30977 0.23233,0.23233 v 0.38722 l -0.0774,0.46465 -0.23233,0.69699 -0.38721,0.69698 -1.70374,0.85187 c 0,0 -27.79204,22.65775 -42.75206,42.01778 -14.96002,19.36003 -24.94597,32.1967 -26.70598,38.06337 -1.76,5.86667 -5.95053,11.48186 -6.24386,18.81521 -0.29333,7.33334 -1.84697,5.81461 -1.84697,5.81461 l -0.59387,0.18273 -0.68524,0.0457 z"
             id="path264"
             sodipodi:nodetypes="cssscccccccccccssscccc" /></g><g
           id="g268"
           transform="matrix(-0.09932728,0,0,0.09911346,1519.3451,459.6629)"
           style="fill:#09b8e0;fill-opacity:1;stroke-width:2.98247"><path
             style="opacity:1;fill:#09b8e0;fill-opacity:1;stroke:none;stroke-width:2.98713;stroke-opacity:1"
             d="m 220.36376,900.0482 c -7.00794,-7.00793 -31.01655,-51.67564 8.95227,-91.58868 24.79092,-24.10229 68.86367,-13.0841 68.86367,-13.0841 0,0 -41.3182,33.05456 -67.4864,74.37276 -0.68863,0.68864 -5.50909,2.06591 -11.70682,-25.47955 0.68863,0.68863 -4.82046,20.6591 1.37728,55.77957 z"
             id="path265"
             sodipodi:nodetypes="cccccc" /><path
             style="opacity:1;fill:#09b8e0;fill-opacity:1;stroke:none;stroke-width:2.98713;stroke-opacity:1"
             d="m 254.95524,926.50561 c 0,0 30.54913,12.07649 64.88605,-20.00141 34.33691,-32.0779 13.48425,-82.58221 8.8737,-86.16819 -0.17076,0 -48.15461,33.12764 -67.10908,78.20856 0.17076,-0.34153 61.30321,5.46435 68.47517,-46.27624 -0.17076,-0.17076 5.97664,29.88318 -13.1486,49.69146 -7.34272,7.68424 -11.15734,10.74347 -24.64746,17.40315 -8.70881,3.58598 -8.15556,5.19654 -37.32978,7.14267 z"
             id="path266"
             sodipodi:nodetypes="cscccccc" /><path
             style="opacity:1;fill:#09b8e0;fill-opacity:1;stroke:none;stroke-width:2.98713;stroke-opacity:1"
             d="m 243.44242,922.32797 c 0,0 -1.44906,-24.99632 11.77363,-45.10206 13.22269,-20.10573 19.01894,-28.8001 29.8869,-38.7624 10.86797,-9.96231 25.90198,-23.00386 29.16237,-24.63406 3.26039,-1.63019 5.41808,-3.00455 5.41808,-3.00455 l 1.0842,-0.30977 0.92931,-0.15489 h 0.69698 l 0.61954,0.30977 0.23233,0.23233 v 0.38722 l -0.0774,0.46465 -0.23233,0.69699 -0.38721,0.69698 -1.70374,0.85187 c 0,0 -30.15132,20.5344 -45.11134,39.89443 -14.96002,19.36003 -22.58669,34.32005 -24.3467,40.18672 -1.76,5.86667 -4.69334,12.90668 -4.98667,20.24003 -0.29333,7.33334 -1.17647,8.32899 -1.17647,8.32899 l -0.59387,0.18273 -0.68524,0.0457 z"
             id="path267" /><path
             style="opacity:1;fill:#09b8e0;fill-opacity:1;stroke:none;stroke-width:2.98713;stroke-opacity:1"
             d="m 227.78153,910.41466 c 0,0 0.62309,-20.80444 14.17318,-40.691 13.48014,-19.78392 20.70435,-26.79255 31.30247,-37.81869 11.06059,-11.50729 24.78931,-24.35885 27.7468,-26.04963 3.16457,-1.80917 4.94622,-3.00455 4.94622,-3.00455 l 1.0842,-0.30977 0.92931,-0.15489 h 0.69698 l 0.61954,0.30977 0.23233,0.23233 v 0.38722 l -0.0774,0.46465 -0.23233,0.69699 -0.38721,0.69698 -1.70374,0.85187 c 0,0 -27.79204,22.65775 -42.75206,42.01778 -14.96002,19.36003 -24.94597,32.1967 -26.70598,38.06337 -1.76,5.86667 -5.95053,11.48186 -6.24386,18.81521 -0.29333,7.33334 -1.84697,5.81461 -1.84697,5.81461 l -0.59387,0.18273 -0.68524,0.0457 z"
             id="path268"
             sodipodi:nodetypes="cssscccccccccccssscccc" /></g><g
           id="g276"
           style="fill:#09b8e0;fill-opacity:1;stroke-width:2.98247"
           transform="matrix(0.09932728,0,0,0.09911346,1393.1582,459.6629)"><path
             style="opacity:1;fill:#09b8e0;fill-opacity:1;stroke:none;stroke-width:2.98713;stroke-opacity:1"
             d="m 212.41427,968.25516 131.38621,12.7812 -125.40237,4.06962 z"
             id="path269"
             sodipodi:nodetypes="cccc" /><path
             style="opacity:1;fill:#09b8e0;fill-opacity:1;stroke:none;stroke-width:2.98713;stroke-opacity:1"
             d="m 217.17235,988.66423 135.26019,7.7745 -130.95556,3.82297 z"
             id="path270"
             sodipodi:nodetypes="cccc" /><path
             style="opacity:1;fill:#09b8e0;fill-opacity:1;stroke:none;stroke-width:2.98713;stroke-opacity:1"
             d="m 224.52211,1002.9769 135.26019,9.3218 -130.95556,2.2757 z"
             id="path271"
             sodipodi:nodetypes="cccc" /><path
             style="opacity:1;fill:#09b8e0;fill-opacity:1;stroke:none;stroke-width:2.98713;stroke-opacity:1"
             d="m 230.32455,1016.9028 141.44946,12.0296 -137.14483,-0.4321 z"
             id="path272"
             sodipodi:nodetypes="cccc" /><path
             style="opacity:1;fill:#09b8e0;fill-opacity:1;stroke:none;stroke-width:2.98713;stroke-opacity:1"
             d="m 236.51382,1031.6024 142.99678,12.4164 -134.82386,4.2098 z"
             id="path273"
             sodipodi:nodetypes="cccc" /><path
             style="opacity:1;fill:#09b8e0;fill-opacity:1;stroke:none;stroke-width:2.98713;stroke-opacity:1"
             d="m 248.20564,1056.2715 7.54679,6.7083 h 25.715 c 0,0 35.49788,53.6661 47.23733,61.7719 11.73946,8.1058 27.39207,13.4165 27.39207,13.4165 l -0.83854,-1.3976 c 0,0 -44.16271,-43.8832 -62.61043,-73.7908 -1.95657,-5.0312 -4.19266,-6.9878 -4.19266,-6.9878 l -4.75168,0.2795 z"
             id="path274" /><path
             style="opacity:1;fill:#09b8e0;fill-opacity:1;stroke:none;stroke-width:2.98713;stroke-opacity:1"
             d="m 313.05215,1057.11 5.31071,-0.8385 3.91315,1.1181 2.79511,1.9565 c 0,0 24.31744,34.3798 53.10706,62.0514 1.11804,2.7951 -4.19265,1.3976 -4.19265,1.3976 0,0 -35.7774,-25.4355 -60.93338,-65.6851 z"
             id="path275"
             sodipodi:nodetypes="ccccccc" /><path
             style="opacity:1;fill:#09b8e0;fill-opacity:1;stroke:none;stroke-width:2.98713;stroke-opacity:1"
             d="m 349.06318,1056.8692 3.75228,-0.319 2.67797,0.9735 1.85491,1.5018 c 0,0 15.26918,25.1508 33.99849,45.8538 0.64127,2.0019 -2.99913,0.764 -2.99913,0.764 0,0 -23.72317,-19.4943 -39.28452,-48.7741 z"
             id="path276"
             sodipodi:nodetypes="ccccccc" /></g><g
           id="g284"
           transform="matrix(-0.09932728,0,0,0.09911346,1519.3236,459.6629)"
           style="fill:#09b8e0;fill-opacity:1;stroke-width:2.98247"><path
             style="opacity:1;fill:#09b8e0;fill-opacity:1;stroke:none;stroke-width:2.98713;stroke-opacity:1"
             d="m 212.41427,968.25516 131.38621,12.7812 -125.40237,4.06962 z"
             id="path277"
             sodipodi:nodetypes="cccc" /><path
             style="opacity:1;fill:#09b8e0;fill-opacity:1;stroke:none;stroke-width:2.98713;stroke-opacity:1"
             d="m 217.17235,988.66423 135.26019,7.7745 -130.95556,3.82297 z"
             id="path278"
             sodipodi:nodetypes="cccc" /><path
             style="opacity:1;fill:#09b8e0;fill-opacity:1;stroke:none;stroke-width:2.98713;stroke-opacity:1"
             d="m 224.52211,1002.9769 135.26019,9.3218 -130.95556,2.2757 z"
             id="path279"
             sodipodi:nodetypes="cccc" /><path
             style="opacity:1;fill:#09b8e0;fill-opacity:1;stroke:none;stroke-width:2.98713;stroke-opacity:1"
             d="m 230.32455,1016.9028 141.44946,12.0296 -137.14483,-0.4321 z"
             id="path280"
             sodipodi:nodetypes="cccc" /><path
             style="opacity:1;fill:#09b8e0;fill-opacity:1;stroke:none;stroke-width:2.98713;stroke-opacity:1"
             d="m 236.51382,1031.6024 142.99678,12.4164 -134.82386,4.2098 z"
             id="path281"
             sodipodi:nodetypes="cccc" /><path
             style="opacity:1;fill:#09b8e0;fill-opacity:1;stroke:none;stroke-width:2.98713;stroke-opacity:1"
             d="m 248.20564,1056.2715 7.54679,6.7083 h 25.715 c 0,0 35.49788,53.6661 47.23733,61.7719 11.73946,8.1058 27.39207,13.4165 27.39207,13.4165 l -0.83854,-1.3976 c 0,0 -44.16271,-43.8832 -62.61043,-73.7908 -1.95657,-5.0312 -4.19266,-6.9878 -4.19266,-6.9878 l -4.75168,0.2795 z"
             id="path282" /><path
             style="opacity:1;fill:#09b8e0;fill-opacity:1;stroke:none;stroke-width:2.98713;stroke-opacity:1"
             d="m 313.05215,1057.11 5.31071,-0.8385 3.91315,1.1181 2.79511,1.9565 c 0,0 24.31744,34.3798 53.10706,62.0514 1.11804,2.7951 -4.19265,1.3976 -4.19265,1.3976 0,0 -35.7774,-25.4355 -60.93338,-65.6851 z"
             id="path283"
             sodipodi:nodetypes="ccccccc" /><path
             style="opacity:1;fill:#09b8e0;fill-opacity:1;stroke:none;stroke-width:2.98713;stroke-opacity:1"
             d="m 349.06318,1056.8692 3.75228,-0.319 2.67797,0.9735 1.85491,1.5018 c 0,0 15.26918,25.1508 33.99849,45.8538 0.64127,2.0019 -2.99913,0.764 -2.99913,0.764 0,0 -23.72317,-19.4943 -39.28452,-48.7741 z"
             id="path284"
             sodipodi:nodetypes="ccccccc" /></g><g
           id="g292"
           style="fill:#09b8e0;fill-opacity:1;stroke-width:2.98247"
           transform="matrix(0.09932728,0,0,0.09911346,1393.1582,459.6629)"><path
             style="opacity:1;fill:#09b8e0;fill-opacity:1;stroke:none;stroke-width:2.98713;stroke-opacity:1"
             d="m 233.75703,674.34963 -5.90959,17.72876 h 18.38538 z"
             id="path285" /><path
             style="opacity:1;fill:#09b8e0;fill-opacity:1;stroke:none;stroke-width:2.98713;stroke-opacity:1"
             d="m 221.28123,704.55419 6.56621,-9.84932 21.66849,1.31325 7.87945,8.53607 z"
             id="path286" /><path
             style="opacity:1;fill:#09b8e0;fill-opacity:1;stroke:none;stroke-width:2.98713;stroke-opacity:1"
             d="m 216.96115,721.28474 54.44103,-2.60877 c 0,0 -4.89923,-8.36592 -24.63226,-8.97257 -19.73303,-0.60665 -25.73292,-3.01972 -25.73292,-3.01972 z"
             id="path287" /><path
             style="opacity:1;fill:#09b8e0;fill-opacity:1;stroke:none;stroke-width:2.98713;stroke-opacity:1"
             d="m 211.43192,736.72861 5.25297,-12.4758 71.57167,6.56621 z"
             id="path288"
             sodipodi:nodetypes="cccc" /><path
             style="opacity:1;fill:#09b8e0;fill-opacity:1;stroke:none;stroke-width:2.98713;stroke-opacity:1"
             d="m 206.83557,753.80075 4.59635,-14.44566 88.64382,8.53607 z"
             id="path289" /><path
             style="opacity:1;fill:#09b8e0;fill-opacity:1;stroke:none;stroke-width:2.98713;stroke-opacity:1"
             d="m 171.39147,772.69077 0.33343,-7.74327 65.27081,2.71321 z"
             id="path290"
             sodipodi:nodetypes="cccc" /><path
             style="opacity:1;fill:#09b8e0;fill-opacity:1;stroke:none;stroke-width:2.98713;stroke-opacity:1"
             d="m 170.63451,789.34392 0.33343,-7.74327 46.09446,2.20857 z"
             id="path291"
             sodipodi:nodetypes="cccc" /><path
             style="opacity:1;fill:#09b8e0;fill-opacity:1;stroke:none;stroke-width:2.98713;stroke-opacity:1"
             d="m 169.68581,802.92606 0.19122,-4.62919 26.4345,1.32035 z"
             id="path292"
             sodipodi:nodetypes="cccc" /></g><g
           id="g300"
           style="stroke-width:1.26801"><path
             style="fill:#09b8e0;fill-opacity:1;stroke:none;stroke-width:0.296385;stroke-opacity:1"
             d="m 1496.0752,526.65927 0.587,1.75716 h -1.8262 z"
             id="path293" /><path
             style="fill:#09b8e0;fill-opacity:1;stroke:none;stroke-width:0.296385;stroke-opacity:1"
             d="m 1497.3144,529.65295 -0.6522,-0.9762 -2.1523,0.13016 -0.7826,0.84604 z"
             id="path294" /><path
             style="fill:#09b8e0;fill-opacity:1;stroke:none;stroke-width:0.296385;stroke-opacity:1"
             d="m 1497.7435,531.31117 -5.4075,-0.25856 c 0,0 0.4866,-0.82918 2.4467,-0.8893 1.96,-0.0601 2.556,-0.2993 2.556,-0.2993 z"
             id="path295" /><path
             style="fill:#09b8e0;fill-opacity:1;stroke:none;stroke-width:0.296385;stroke-opacity:1"
             d="m 1498.2927,532.84187 -0.5218,-1.23652 -7.109,0.6508 z"
             id="path296"
             sodipodi:nodetypes="cccc" /><path
             style="fill:#09b8e0;fill-opacity:1;stroke:none;stroke-width:0.296385;stroke-opacity:1"
             d="m 1498.7492,534.53395 -0.4565,-1.43176 -8.8047,0.84604 z"
             id="path297" /><path
             style="fill:#09b8e0;fill-opacity:1;stroke:none;stroke-width:0.296385;stroke-opacity:1"
             d="m 1502.2698,536.4062 -0.033,-0.76746 -6.4832,0.26892 z"
             id="path298"
             sodipodi:nodetypes="cccc" /><path
             style="fill:#09b8e0;fill-opacity:1;stroke:none;stroke-width:0.296385;stroke-opacity:1"
             d="m 1502.345,538.05675 -0.033,-0.76746 -4.5785,0.2189 z"
             id="path299"
             sodipodi:nodetypes="cccc" /><path
             style="fill:#09b8e0;fill-opacity:1;stroke:none;stroke-width:0.296385;stroke-opacity:1"
             d="m 1502.4392,539.40293 -0.019,-0.45882 -2.6256,0.13087 z"
             id="path300"
             sodipodi:nodetypes="cccc" /></g><g
           id="g303"
           style="stroke-width:1.26801"><path
             style="fill:#09b8e0;fill-opacity:1;stroke:none;stroke-width:0.296385;stroke-opacity:1"
             d="m 1502.4229,552.92215 -0.033,0.76746 -6.4831,-0.26891 z"
             id="path301"
             sodipodi:nodetypes="cccc" /><path
             style="fill:#09b8e0;fill-opacity:1;stroke:none;stroke-width:0.296385;stroke-opacity:1"
             d="m 1502.4981,551.2716 -0.033,0.76746 -4.5784,-0.2189 z"
             id="path302"
             sodipodi:nodetypes="cccc" /><path
             style="fill:#09b8e0;fill-opacity:1;stroke:none;stroke-width:0.296385;stroke-opacity:1"
             d="m 1502.5924,549.92543 -0.019,0.45881 -2.6257,-0.13086 z"
             id="path303"
             sodipodi:nodetypes="cccc" /></g><g
           id="g306"
           style="stroke-width:1.26801"><path
             style="fill:#09b8e0;fill-opacity:1;stroke:none;stroke-width:0.296385;stroke-opacity:1"
             d="m 1410.2424,552.84575 0.033,0.76746 6.4832,-0.26891 z"
             id="path304"
             sodipodi:nodetypes="cccc" /><path
             style="fill:#09b8e0;fill-opacity:1;stroke:none;stroke-width:0.296385;stroke-opacity:1"
             d="m 1410.1672,551.1952 0.033,0.76746 4.5785,-0.2189 z"
             id="path305"
             sodipodi:nodetypes="cccc" /><path
             style="fill:#09b8e0;fill-opacity:1;stroke:none;stroke-width:0.296385;stroke-opacity:1"
             d="m 1410.073,549.84903 0.019,0.45881 2.6256,-0.13086 z"
             id="path306"
             sodipodi:nodetypes="cccc" /></g><g
           id="g314"
           style="stroke-width:1.26801"><path
             style="fill:#09b8e0;fill-opacity:1;stroke:none;stroke-width:0.296385;stroke-opacity:1"
             d="m 1410.4876,533.96623 c -0.063,-0.0421 1.7963,-6.96502 2.8913,-9.00536 0.3405,-0.26429 0.5571,-0.33281 0.5571,-0.33281 0,0 -2.2175,6.21771 -2.7054,9.44827 -0.044,0.0885 -0.743,-0.1101 -0.743,-0.1101 z"
             id="path307"
             sodipodi:nodetypes="ccccc" /><path
             style="fill:#09b8e0;fill-opacity:1;stroke:none;stroke-width:0.296385;stroke-opacity:1"
             d="m 1433.9734,503.56195 c 0,0 6.4616,-5.73731 17.8186,-6.89693 0,0.0527 0.024,0.19239 0.024,0.19239 l -0.3032,0.23606 c 0,0 -6.9687,0.61866 -16.1602,5.8359 -0.7993,0.59815 -1.379,0.63258 -1.379,0.63258 z"
             id="path308"
             sodipodi:nodetypes="cccccc" /><path
             style="fill:#09b8e0;fill-opacity:1;stroke:none;stroke-width:0.296385;stroke-opacity:1"
             d="m 1478.9473,503.62751 c 0,0 -6.4617,-5.73732 -17.8187,-6.89693 0,0.0527 -0.024,0.19238 -0.024,0.19238 l 0.3032,0.23606 c 0,0 6.9688,0.61867 16.1603,5.8359 0.7992,0.59815 1.379,0.63259 1.379,0.63259 z"
             id="path309"
             sodipodi:nodetypes="cccccc" /><path
             style="fill:#09b8e0;fill-opacity:1;stroke:none;stroke-width:0.296385;stroke-opacity:1"
             d="m 1490.437,575.64324 c 0,0 7.3942,-6.10804 11.3285,-19.41779 -0.053,-0.0153 -0.1895,-0.0841 -0.1895,-0.0841 l -0.3133,0.29615 c 0,0 -2.3199,8.19378 -9.8487,17.73144 -0.8013,0.7877 -0.977,1.47428 -0.977,1.47428 z"
             id="path310"
             sodipodi:nodetypes="cccccc" /><path
             style="fill:#09b8e0;fill-opacity:1;stroke:none;stroke-width:0.296385;stroke-opacity:1"
             d="m 1501.9642,534.12548 c 0.063,-0.0421 -1.7963,-6.96502 -2.8913,-9.00537 -0.3405,-0.26429 -0.557,-0.33281 -0.557,-0.33281 0,0 2.2174,6.21772 2.7053,9.44828 0.044,0.0885 0.743,-0.1101 0.743,-0.1101 z"
             id="path311"
             sodipodi:nodetypes="ccccc" /><path
             style="fill:#09b8e0;fill-opacity:1;stroke:none;stroke-width:0.296385;stroke-opacity:1"
             d="m 1433.6029,582.41876 c 0,0 6.4617,5.73732 17.8187,6.89693 0,-0.0527 0.024,-0.19238 0.024,-0.19238 l -0.3032,-0.23606 c 0,0 -6.9688,-0.61867 -16.1603,-5.8359 -0.7992,-0.59816 -1.379,-0.63259 -1.379,-0.63259 z"
             id="path312"
             sodipodi:nodetypes="cccccc" /><path
             style="fill:#09b8e0;fill-opacity:1;stroke:none;stroke-width:0.296385;stroke-opacity:1"
             d="m 1478.4865,582.78838 c 0,0 -6.4617,5.73732 -17.8187,6.89693 0,-0.0527 -0.024,-0.19238 -0.024,-0.19238 l 0.3032,-0.23606 c 0,0 6.9687,-0.61866 16.1602,-5.8359 0.7993,-0.59816 1.3791,-0.63259 1.3791,-0.63259 z"
             id="path313"
             sodipodi:nodetypes="cccccc" /><path
             style="fill:#09b8e0;fill-opacity:1;stroke:none;stroke-width:0.296385;stroke-opacity:1"
             d="m 1422.3093,576.01287 c 0,0 -7.3943,-6.10805 -11.3286,-19.41779 0.053,-0.0153 0.1895,-0.0841 0.1895,-0.0841 l 0.3134,0.29614 c 0,0 2.3198,8.19378 9.8486,17.73144 0.8014,0.78771 0.9771,1.47429 0.9771,1.47429 z"
             id="path314"
             sodipodi:nodetypes="cccccc" /></g><g
           id="g320"
           transform="matrix(0.09932728,0,0,0.09911346,1393.1582,459.6629)"
           style="stroke-width:2.98247"><path
             style="opacity:1;fill:#09b8e0;fill-opacity:1;stroke:none;stroke-width:2.98713;stroke-opacity:1"
             d="m 345.12219,515.43639 c 0,0 44.93778,-53.47597 93.91996,-75.94486 1.34814,0.89876 -58.41912,46.7353 -85.38179,75.49548 -0.44937,0.89876 -8.53817,0.44938 -8.53817,0.44938 z"
             id="path315" /><path
             style="opacity:1;fill:#09b8e0;fill-opacity:1;stroke:none;stroke-width:2.98713;stroke-opacity:1"
             d="m 368.93921,535.65839 c 0,0 61.56477,-67.40668 110.54695,-89.87557 0.34419,0.49718 -81.35396,60.6594 -103.80629,91.22371 -0.44937,0.89876 -6.74066,-1.34814 -6.74066,-1.34814 z"
             id="path316"
             sodipodi:nodetypes="cccc" /><path
             style="opacity:1;fill:#09b8e0;fill-opacity:1;stroke:none;stroke-width:2.98713;stroke-opacity:1"
             d="m 385.56619,548.24097 c -1.28861,-0.85908 64.25864,-72.9506 115.49011,-93.91996 -4.00609,0.49718 -85.00669,65.60255 -107.40132,96.16686 -0.44937,0.89876 -8.08879,-2.2469 -8.08879,-2.2469 z"
             id="path317"
             sodipodi:nodetypes="cccc" /><path
             style="opacity:1;fill:#09b8e0;fill-opacity:1;stroke:none;stroke-width:2.98713;stroke-opacity:1"
             d="m 405.78819,562.45542 c -0.52462,-1.04924 51.38488,-56.4892 93.47076,-73.53233 0.29102,0.40677 -66.09094,48.73016 -85.07506,73.73656 -0.37996,0.73533 -8.3957,-0.20423 -8.3957,-0.20423 z"
             id="path318"
             sodipodi:nodetypes="cccc" /><path
             style="opacity:1;fill:#09b8e0;fill-opacity:1;stroke:none;stroke-width:2.98713;stroke-opacity:1"
             d="m 420.16828,583.34919 c 0,0 40.04234,-45.54207 71.90084,-60.72276 0.22386,0.33591 -52.91343,40.9834 -67.51665,61.63361 -0.29228,0.60723 -4.38419,-0.91085 -4.38419,-0.91085 z"
             id="path319"
             sodipodi:nodetypes="cccc" /><path
             style="opacity:1;fill:#09b8e0;fill-opacity:1;stroke:none;stroke-width:2.98713;stroke-opacity:1"
             d="m 326.56492,500.10183 c 0,0 0.67611,-6.31044 7.88804,-12.17012 0.90149,-0.22538 -2.02836,6.5358 -3.60597,12.39549 0,-0.22537 -4.28207,-0.22537 -4.28207,-0.22537 z"
             id="path320" /></g><g
           id="g326"
           transform="matrix(-0.09932728,0,0,0.09911346,1519.48,459.74123)"
           style="stroke-width:2.98247"><path
             style="opacity:1;fill:#09b8e0;fill-opacity:1;stroke:none;stroke-width:2.98713;stroke-opacity:1"
             d="m 345.12219,515.43639 c 0,0 44.93778,-53.47597 93.91996,-75.94486 1.34814,0.89876 -58.41912,46.7353 -85.38179,75.49548 -0.44937,0.89876 -8.53817,0.44938 -8.53817,0.44938 z"
             id="path321" /><path
             style="opacity:1;fill:#09b8e0;fill-opacity:1;stroke:none;stroke-width:2.98713;stroke-opacity:1"
             d="m 368.93921,535.65839 c 0,0 61.56477,-67.40668 110.54695,-89.87557 0.34419,0.49718 -81.35396,60.6594 -103.80629,91.22371 -0.44937,0.89876 -6.74066,-1.34814 -6.74066,-1.34814 z"
             id="path322"
             sodipodi:nodetypes="cccc" /><path
             style="opacity:1;fill:#09b8e0;fill-opacity:1;stroke:none;stroke-width:2.98713;stroke-opacity:1"
             d="m 385.56619,548.24097 c -1.28861,-0.85908 64.25864,-72.9506 115.49011,-93.91996 -4.00609,0.49718 -85.00669,65.60255 -107.40132,96.16686 -0.44937,0.89876 -8.08879,-2.2469 -8.08879,-2.2469 z"
             id="path323"
             sodipodi:nodetypes="cccc" /><path
             style="opacity:1;fill:#09b8e0;fill-opacity:1;stroke:none;stroke-width:2.98713;stroke-opacity:1"
             d="m 405.78819,562.45542 c -0.52462,-1.04924 51.38488,-56.4892 93.47076,-73.53233 0.29102,0.40677 -66.09094,48.73016 -85.07506,73.73656 -0.37996,0.73533 -8.3957,-0.20423 -8.3957,-0.20423 z"
             id="path324"
             sodipodi:nodetypes="cccc" /><path
             style="opacity:1;fill:#09b8e0;fill-opacity:1;stroke:none;stroke-width:2.98713;stroke-opacity:1"
             d="m 420.16828,583.34919 c 0,0 40.04234,-45.54207 71.90084,-60.72276 0.22386,0.33591 -52.91343,40.9834 -67.51665,61.63361 -0.29228,0.60723 -4.38419,-0.91085 -4.38419,-0.91085 z"
             id="path325"
             sodipodi:nodetypes="cccc" /><path
             style="opacity:1;fill:#09b8e0;fill-opacity:1;stroke:none;stroke-width:2.98713;stroke-opacity:1"
             d="m 326.56492,500.10183 c 0,0 0.67611,-6.31044 7.88804,-12.17012 0.90149,-0.22538 -2.02836,6.5358 -3.60597,12.39549 0,-0.22537 -4.28207,-0.22537 -4.28207,-0.22537 z"
             id="path326" /></g><g
           id="g330"
           style="stroke-width:1.26801"><path
             style="fill:#09b8e0;fill-opacity:1;stroke:none;stroke-width:0.296385;stroke-opacity:1"
             d="m 1446.6988,508.54297 0.018,-0.28859 -1.5184,-5.0323 -0.3796,-0.93792 -0.018,-0.18037 v -0.18037 l 0.1085,-0.0541 0.1808,0.0541 0.09,0.18037 0.1085,0.0361 c 0,0 0.6869,0.19841 0.9942,0.34271 0.3072,0.14429 0.3795,0.1984 0.5965,0.52307 0.2169,0.32466 0.2711,0.91988 0.2711,0.91988 l 0.2169,0.3427 0.235,0.18037 0.1446,0.0721 0.1988,0.0722 h 0.1446 0.1085 l 0.072,-0.16234 0.1627,-0.21644 0.1265,-0.14429 0.1627,-0.0902 0.1807,-0.0721 0.1808,-0.018 h 0.1988 l 0.1446,0.0721 0.1627,0.10823 0.054,0.1984 v 0.28859 0.25252 c 0,0 0,1.06418 0.5061,1.40688 0.3796,0.32466 1.0845,0.8297 2.0787,0.73951 0.9219,-0.16233 1.1569,-0.27055 1.4822,-0.52307 0.3254,-0.25251 0.4881,-0.48699 0.5965,-0.90184 0.1085,-0.41485 0.2531,-3.35487 -1.7353,-1.60529 -0.1626,0.12626 -0.1676,0.12086 -0.1676,0.12086 l -0.1028,0.0158 h -0.1108 l -0.079,-0.0158 c 0,0 -1.5845,-1.00076 0.099,-2.28827 0.1731,-0.0628 1.0385,-0.15701 1.4476,0.48674 0.2046,0.12561 0.299,0.0942 0.299,0.0942 l 0.063,-0.10991 -0.094,-0.26692 c 0,0 -0.6294,-0.86358 0.2361,-1.25611 0.2517,-0.0157 0.5192,-0.0628 0.5192,-0.0628 l 0.5665,0.0157 h 0.1101 l 0.094,0.0314 c 0,0 -0.7552,-1.46022 0.834,-2.4337 l 0.031,3.51709 -0.7238,-0.0157 c 0,0 -1.7466,1.89986 0.1416,2.59071 0.094,0.15702 0.047,0.26693 0.047,0.26693 l -0.079,0.14131 -0.079,0.15701 c 0,0 -0.5192,2.30809 0.6924,2.00977 l 0.016,0.83217 c 0,0 -4.1069,-0.10991 -9.0635,0.76936 -0.1888,0.0157 -0.3304,0.10991 -0.3304,0.10991 l -0.094,0.18842 -0.079,-0.0157 z"
             id="path327" /><path
             style="fill:#09b8e0;fill-opacity:1;stroke:none;stroke-width:0.296385;stroke-opacity:1"
             d="m 1465.8731,508.54297 -0.018,-0.28859 1.5184,-5.0323 0.3795,-0.93792 0.018,-0.18037 v -0.18037 l -0.1084,-0.0541 -0.1808,0.0541 -0.09,0.18037 -0.1084,0.0361 c 0,0 -0.6869,0.19841 -0.9942,0.34271 -0.3073,0.14429 -0.3796,0.1984 -0.5965,0.52307 -0.2169,0.32466 -0.2711,0.91988 -0.2711,0.91988 l -0.2169,0.3427 -0.235,0.18037 -0.1446,0.0721 -0.1989,0.0722 h -0.1446 -0.1084 l -0.072,-0.16234 -0.1627,-0.21644 -0.1265,-0.14429 -0.1627,-0.0902 -0.1808,-0.0721 -0.1807,-0.018 h -0.1989 l -0.1446,0.0721 -0.1627,0.10823 -0.054,0.1984 v 0.28859 0.25252 c 0,0 0,1.06418 -0.5061,1.40688 -0.3796,0.32466 -1.0846,0.8297 -2.0787,0.73951 -0.9219,-0.16233 -1.1569,-0.27055 -1.4823,-0.52307 -0.3253,-0.25251 -0.488,-0.48699 -0.5965,-0.90184 -0.1084,-0.41485 -0.253,-3.35487 1.7353,-1.60529 0.1627,0.12626 0.1677,0.12086 0.1677,0.12086 l 0.1028,0.0158 h 0.1107 l 0.079,-0.0158 c 0,0 1.5844,-1.00076 -0.099,-2.28827 -0.1731,-0.0628 -1.0386,-0.15701 -1.4477,0.48674 -0.2045,0.12561 -0.2989,0.0942 -0.2989,0.0942 l -0.063,-0.10991 0.094,-0.26692 c 0,0 0.6294,-0.86358 -0.236,-1.25611 -0.2518,-0.0157 -0.5193,-0.0628 -0.5193,-0.0628 l -0.5664,0.0157 h -0.1102 l -0.094,0.0314 c 0,0 0.7553,-1.46022 -0.8339,-2.4337 l -0.032,3.51709 0.7238,-0.0157 c 0,0 1.7466,1.89986 -0.1416,2.59071 -0.094,0.15702 -0.047,0.26693 -0.047,0.26693 l 0.079,0.14131 0.079,0.15701 c 0,0 0.5193,2.30809 -0.6923,2.00977 l -0.016,0.83217 c 0,0 4.1069,-0.10991 9.0635,0.76936 0.1888,0.0157 0.3305,0.10991 0.3305,0.10991 l 0.094,0.18842 0.079,-0.0157 z"
             id="path328" /><path
             style="fill:#09b8e0;fill-opacity:1;stroke:none;stroke-width:0.296385;stroke-opacity:1"
             d="m 1447.0687,509.4939 c 0,0 10.0117,-2.29285 18.3245,0.0526 l -0.4013,1.08691 c 0,0 -6.077,-2.23103 -17.6002,-0.0572 -0.057,-0.0572 -0.323,-1.0823 -0.323,-1.0823 z"
             id="path329"
             sodipodi:nodetypes="ccccc" /><path
             style="fill:#09b8e0;fill-opacity:1;stroke:none;stroke-width:0.296385;stroke-opacity:1"
             d="m 1447.0687,511.49611 c 0,0 10.0117,-2.29285 18.3245,0.0526 l -0.4013,1.08691 c 0,0 -6.077,-2.23103 -17.6002,-0.0572 -0.057,-0.0572 -0.323,-1.0823 -0.323,-1.0823 z"
             id="path330"
             sodipodi:nodetypes="ccccc" /></g></g></g></g></svg>
